<svg width="92" height="91" viewBox="0 0 92 91" fill="none" xmlns="http://www.w3.org/2000/svg">
<path d="M45.8992 90.1712C70.6424 90.1712 90.7007 70.1088 90.7007 45.3605C90.7007 20.6122 70.6424 0.549805 45.8992 0.549805C21.1561 0.549805 1.09778 20.6122 1.09778 45.3605C1.09778 70.1088 21.1561 90.1712 45.8992 90.1712Z" stroke="black" stroke-width="1.025"/>
<path d="M70.0621 52.5799C70.0422 52.4206 70.0322 52.2613 70.0023 52.1019C69.9326 51.6807 69.6838 51.372 69.3453 51.128C69.2756 51.0812 69.2159 51.0474 69.196 50.9548C69.186 50.911 69.1363 50.8701 69.0964 50.8383C68.977 50.7417 68.8574 50.6501 68.7379 50.5545L57.4181 41.5844C54.7101 39.4344 52.0021 37.2855 49.2842 35.1366L40.6823 28.3184C39.4676 27.3505 38.243 26.3836 37.0184 25.4156C36.9089 25.329 36.8094 25.2324 36.7099 25.1468C36.6505 25.104 36.5871 25.067 36.5206 25.0363C36.2717 24.9317 36.0228 24.9347 35.764 24.9665C35.6047 24.9865 35.4454 25.0094 35.2861 25.0432C34.5494 25.2025 33.972 25.6029 33.5538 26.2252C33.3824 26.473 33.2764 26.76 33.2452 27.0597C33.2452 27.1105 33.2452 27.1663 33.2253 27.2111C33.1755 27.3106 33.2054 27.3933 33.2552 27.4789C33.2851 27.5178 33.3049 27.5546 33.3448 27.5666C33.4344 27.5885 33.4841 27.6482 33.5438 27.701L38.5617 32.0626C40.6126 33.8381 42.6536 35.6116 44.6945 37.3871L49.5032 41.5624C51.2554 43.084 52.9977 44.6046 54.75 46.1262L60.3053 50.9478C61.3407 51.85 62.3761 52.7522 63.4215 53.6534C63.4812 53.7111 63.551 53.7679 63.6107 53.8276C63.8795 54.0796 64.1782 54.2977 64.4769 54.5058C64.666 54.6352 64.8453 54.7667 64.9846 54.9529C65.0444 55.0296 65.124 55.0564 65.2036 55.0754C65.2435 55.0843 65.2633 55.0624 65.2733 55.0375C65.2932 54.9977 65.3032 54.9559 65.3231 54.914C65.758 53.7572 66.4935 52.7373 67.4537 51.9595C67.6528 51.7912 67.8818 51.6478 68.1108 51.5273C68.2801 51.4417 68.4592 51.378 68.6483 51.3401C68.718 51.3252 68.7877 51.3302 68.8674 51.3471C69.0764 51.3939 69.2656 51.4985 69.415 51.6538C69.4744 51.7175 69.5247 51.7893 69.5643 51.8669C69.634 51.9964 69.6739 52.1388 69.6938 52.2852C69.7137 52.5172 69.7037 52.7512 69.6738 52.9842C69.6141 53.4253 69.4548 53.8316 69.2756 54.2309C68.957 54.927 68.5289 55.5563 68.0411 56.1429C67.4327 56.8779 66.7179 57.518 65.9204 58.0418C65.5123 58.3057 65.0942 58.5268 64.6263 58.6801C64.4072 58.7538 64.1782 58.8016 63.9392 58.8295C63.6505 58.8644 63.3718 58.8036 63.1129 58.6891C63.078 58.6736 63.0472 58.6501 63.0232 58.6204C62.8839 58.3943 62.7943 58.1514 62.8242 57.8755C62.8441 57.7341 62.8839 57.6007 62.9536 57.4812C63.093 57.2472 63.2324 57.0162 63.3818 56.7901C63.4515 56.6736 63.551 56.5701 63.6307 56.4625C63.7501 56.3251 63.8795 56.2026 64.0288 56.111C64.208 55.9965 64.4072 55.8929 64.5964 55.7933C64.6998 55.7363 64.8167 55.7081 64.9348 55.7117C65.0145 55.7167 65.0643 55.6908 65.0942 55.6181C65.1041 55.5912 65.1239 55.5663 65.1339 55.5404C65.1538 55.5036 65.1539 55.4717 65.1141 55.4428C65.0444 55.3791 64.9746 55.3144 64.9049 55.2526C64.6262 55.0156 64.3474 54.7816 64.0687 54.5426C61.1814 52.0472 58.2843 49.5507 55.3971 47.0542C53.0973 45.0706 50.8074 43.086 48.5076 41.1014L41.5783 35.1197C39.0595 32.9389 36.5307 30.7581 34.0019 28.5773C33.4941 28.1332 32.9764 27.691 32.4587 27.2429C32.403 27.1912 32.3368 27.152 32.2647 27.1279C32.1926 27.1039 32.1161 27.0956 32.0405 27.1035C30.6865 27.1812 29.661 27.932 29.0637 28.6759C28.8247 28.9676 28.6356 29.2873 28.5062 29.6398C28.3569 30.0341 28.2871 30.4394 28.327 30.8646C28.3469 31.014 28.3767 31.1514 28.4265 31.2878L28.5759 31.6782C28.6854 31.7718 28.795 31.8674 28.9045 31.958C32.9366 35.1436 36.9687 38.3271 40.9908 41.5117C41.18 41.661 41.3792 41.8104 41.5684 41.9598C41.6181 41.9986 41.658 42.0155 41.7277 41.9777C41.7614 41.9563 41.7996 41.943 41.8394 41.9389C41.8791 41.9347 41.9192 41.9398 41.9566 41.9538C42.0123 41.9683 42.0709 41.9669 42.1258 41.9498C42.2154 41.9259 42.2951 41.9359 42.3847 41.9418C42.5241 41.9498 42.6635 41.9608 42.8029 41.9508C43.1513 41.9259 43.4899 41.9309 43.8284 41.9886C43.8714 41.9938 43.915 41.9928 43.9578 41.9857C44.0972 41.9687 44.2365 41.9389 44.3759 41.9309C44.8438 41.905 45.2819 42.0066 45.7001 42.2286C46.0457 42.4058 46.3533 42.6486 46.606 42.9436C46.7155 43.0661 46.8251 43.1876 46.9246 43.3091C46.9645 43.3469 46.9943 43.3877 47.0341 43.4186C47.2233 43.558 47.4024 43.7074 47.6016 43.8279C48.1989 44.1894 48.7366 44.6295 49.2343 45.1174C50.001 45.8742 50.668 46.7207 51.2654 47.6169C51.355 47.7503 51.4546 47.8788 51.5541 48.0022C51.7632 48.2512 51.9723 48.4952 52.1714 48.7421C52.4701 49.0906 52.8086 49.3944 53.177 49.6523C53.3263 49.7519 53.4756 49.8504 53.615 49.946C53.9336 50.1512 54.2223 50.3872 54.4911 50.6481C54.7599 50.91 54.9689 51.2187 55.178 51.5283C55.2576 51.6439 55.3274 51.7614 55.4071 51.8789C55.865 52.5919 56.3828 53.263 56.9104 53.9282C56.9303 53.9621 56.9701 53.9949 56.99 54.0318C57.1095 54.2289 57.2688 54.3793 57.4579 54.5207C59.1604 55.865 60.8629 57.2133 62.5653 58.5606L62.6848 58.6562C62.7346 58.6911 62.7744 58.7289 62.7943 58.7917C62.8042 58.8793 62.874 58.9271 62.9436 58.9699C63.1726 59.1033 63.4115 59.1591 63.6704 59.1731C63.9591 59.189 64.2478 59.1392 64.5166 59.0665C64.8352 58.9829 65.1439 58.8594 65.4426 58.711C66.0067 58.42 66.5346 58.0637 67.0156 57.6495C67.8288 56.9655 68.5308 56.1592 69.0964 55.2596C69.4549 54.693 69.7535 54.0965 69.9227 53.4472C70.0123 53.1097 70.0422 52.8657 70.0621 52.5809V52.5799Z" fill="black"/>
<path d="M29.7209 61.2443H30.5274C30.5971 61.2443 30.6667 61.2363 30.7165 61.2801C30.8061 61.3449 30.8957 61.3379 30.9953 61.3309C31.1745 61.318 31.3536 61.2991 31.5428 61.2891C31.7618 61.2772 31.9809 61.2682 32.1999 61.2652C32.3592 61.2622 32.5285 61.2692 32.6977 61.2732C32.8072 61.2762 32.9267 61.305 33.0262 61.2791C33.2552 61.2224 33.4942 61.2523 33.7232 61.2094C33.8128 61.1925 33.9124 61.1816 34.002 61.1716C34.1912 61.1507 34.3703 61.1208 34.5495 61.1158C35.1469 61.0989 35.7542 61.0889 36.3516 61.081C36.491 61.079 36.6303 61.0939 36.7697 61.0989C37.2177 61.1138 37.6558 61.1178 38.1038 61.0431C38.4921 60.9784 38.8803 60.9217 39.2786 60.9276C39.4777 60.9306 39.6768 60.9037 39.8659 60.8858C40.0053 60.8739 40.0751 60.7763 40.0551 60.6428C40.0551 60.614 40.0352 60.5871 40.0252 60.5602C40.0053 60.5134 40.0253 60.4745 40.0551 60.4387C40.085 60.3999 40.1248 60.364 40.1547 60.3242C40.2144 60.2565 40.2642 60.1907 40.314 60.1171C40.4733 59.8801 40.523 59.6351 40.3637 59.3752C40.3438 59.3294 40.3538 59.2915 40.3936 59.2607C40.4708 59.1925 40.5695 59.1538 40.6724 59.1511C40.7321 59.1511 40.7919 59.1412 40.8417 59.1073C40.9612 59.0247 41.0906 59.0526 41.22 59.0715C41.2499 59.0755 41.2697 59.1163 41.2498 59.1382C41.2299 59.1681 41.2001 59.193 41.1802 59.2238C41.1702 59.2547 41.1503 59.2905 41.1403 59.3254C41.1303 59.4041 41.2001 59.4708 41.2797 59.4509C41.2999 59.4444 41.3199 59.4371 41.3395 59.429C41.4888 59.3682 41.6381 59.3025 41.7875 59.2487C41.9069 59.2049 41.9865 59.1392 41.9965 59.0018C42.0065 58.9241 42.0463 58.9002 42.116 58.9211C42.2454 58.953 42.365 58.9838 42.4745 59.0356C42.7234 59.1521 42.9821 59.2139 43.2609 59.2348C43.5795 59.2597 43.8882 59.3254 44.2068 59.4051C44.5055 59.4817 44.8041 59.5475 45.1127 59.5873C45.2023 59.5992 45.2919 59.6261 45.3815 59.65C45.4413 59.666 45.4712 59.6968 45.4613 59.7387C45.4613 59.8074 45.4313 59.8621 45.3716 59.8741C45.3218 59.887 45.2621 59.892 45.2024 59.897C45.1128 59.903 45.0232 59.9099 44.9435 59.9089C44.899 59.91 44.8548 59.9012 44.8141 59.883C44.7344 59.8452 44.6448 59.8512 44.5552 59.8562C44.4557 59.8621 44.3959 59.9418 44.4158 60.0394C44.4158 60.0862 44.4456 60.123 44.4855 60.1419C44.5266 60.1605 44.5702 60.173 44.6149 60.1788C44.8439 60.2097 45.0729 60.2385 45.3019 60.1977C45.4612 60.1718 45.6105 60.1549 45.7599 60.139C45.9191 60.124 46.0485 60.0922 46.1083 59.9199C46.1182 59.8641 46.1879 59.8412 46.2278 59.8562C46.3472 59.892 46.4469 59.9428 46.5564 59.9886V60.0254C46.5464 60.0385 46.5324 60.048 46.5165 60.0523C46.2676 60.1519 46.0187 60.2575 45.7499 60.3152C45.6503 60.3371 45.5707 60.368 45.5409 60.4755C45.5209 60.5323 45.4712 60.5482 45.4214 60.5472C45.3616 60.5462 45.3018 60.5442 45.2421 60.5413C45.1768 60.5342 45.1108 60.5418 45.0488 60.5635C44.9868 60.5852 44.9304 60.6205 44.8837 60.6667C44.8337 60.7198 44.7704 60.7585 44.7003 60.7788C44.6303 60.7991 44.5561 60.8003 44.4855 60.7822C44.356 60.7584 44.2168 60.7713 44.0873 60.7763C44.0225 60.7818 43.9588 60.7966 43.8981 60.8201C43.8384 60.841 43.8085 60.8918 43.7986 60.9525C43.7687 61.0641 43.8185 61.1387 43.938 61.1537C43.9977 61.1616 44.0574 61.1626 44.1171 61.1646C44.2167 61.1696 44.3163 61.1726 44.4158 61.1746C44.4855 61.1766 44.5353 61.1955 44.5652 61.2503C44.6349 61.3439 44.7245 61.4036 44.8241 61.4484C44.9336 61.4942 45.0331 61.5072 45.1426 61.4713C45.3118 61.4186 45.4811 61.3817 45.6504 61.3349C45.72 61.316 45.7797 61.315 45.8494 61.3339C45.9039 61.3531 45.961 61.3638 46.0187 61.3658C46.2577 61.3648 46.4866 61.4056 46.7156 61.4425C46.7813 61.4542 46.8481 61.4592 46.9148 61.4574C46.9588 61.4548 47 61.4352 47.0297 61.4026C47.0595 61.3701 47.0755 61.3272 47.0741 61.2831C47.0741 61.2124 47.0342 61.1527 46.9645 61.1348C46.9346 61.1258 46.8948 61.1238 46.855 61.1178C46.6957 61.0899 46.626 61.0103 46.6061 60.842C46.5961 60.8061 46.5961 60.7693 46.5861 60.7344C46.5762 60.6926 46.5365 60.6428 46.5464 60.614C46.5763 60.5632 46.636 60.5821 46.6858 60.5801C46.7356 60.5791 46.7952 60.5841 46.845 60.5801C46.9346 60.5721 46.9944 60.605 47.0243 60.7006C47.0442 60.7703 47.1039 60.8002 47.1736 60.8002C47.2135 60.8012 47.2632 60.8012 47.3031 60.7992C47.4325 60.7942 47.552 60.8071 47.6714 60.8529C47.771 60.8898 47.8705 60.8968 47.97 60.8858C48.1293 60.8689 48.2986 60.8619 48.4579 60.843C48.5873 60.8251 48.7367 60.8111 48.8661 60.7693C49.0851 60.6996 49.3042 60.61 49.5232 60.5283C49.6427 60.4835 49.7721 60.4377 49.8916 60.3949C50.0708 60.3341 50.25 60.3092 50.4292 60.3411C50.6084 60.371 50.7776 60.3351 50.9568 60.3092C51.0663 60.2933 51.1659 60.2634 51.2755 60.2455C51.3863 60.2348 51.4909 60.1892 51.5741 60.1151C51.6139 60.0772 51.6737 60.0693 51.7334 60.0503C51.7931 60.0294 51.823 59.9856 51.8429 59.9239C51.8628 59.8462 51.813 59.7665 51.7334 59.7645C51.5841 59.7626 51.4348 59.7576 51.2954 59.7765C51.0465 59.8094 50.7976 59.7805 50.5587 59.7377C50.5006 59.7293 50.4437 59.7139 50.3894 59.6919C50.2599 59.6411 50.1305 59.5853 50.0011 59.5295C49.9911 59.5256 49.9811 59.5046 49.9811 59.4967C49.9911 59.4857 50.0011 59.4738 50.021 59.4718C50.0708 59.4658 50.1306 59.4598 50.1903 59.4588C50.4492 59.4509 50.7079 59.4459 50.9568 59.4359C51.1957 59.427 51.4248 59.416 51.6638 59.4011C51.7434 59.3961 51.813 59.4061 51.8529 59.4987C51.8728 59.5305 51.9225 59.5564 51.9624 59.5604C52.0619 59.5714 52.1515 59.6062 52.2411 59.6331C52.3108 59.654 52.3805 59.66 52.4502 59.6699C52.5896 59.6879 52.729 59.6948 52.8584 59.7506C52.8982 59.7665 52.9082 59.8143 52.8883 59.8412C52.8784 59.8462 52.8783 59.8522 52.8684 59.8572C52.8684 59.8631 52.8584 59.8691 52.8584 59.8721C52.7741 59.925 52.7045 59.9982 52.6558 60.085C52.6071 60.1718 52.5809 60.2695 52.5796 60.369C52.5796 60.4198 52.5398 60.4457 52.49 60.4536C52.2113 60.5024 51.9326 60.5492 51.6538 60.599C51.4646 60.6309 51.2954 60.6787 51.146 60.8051C51.1162 60.837 51.0564 60.8539 51.0066 60.8659C50.927 60.8858 50.8374 60.8968 50.7478 60.9127C50.698 60.9236 50.6382 60.9326 50.5785 60.9505C50.5465 60.9594 50.5189 60.9795 50.5006 61.0071C50.4823 61.0347 50.4746 61.068 50.4789 61.1009C50.4889 61.1656 50.5387 61.2144 50.6183 61.2144C50.688 61.2144 50.7477 61.2084 50.8174 61.1975C50.9966 61.1676 51.1759 61.1357 51.3551 61.0989C51.4174 61.0826 51.4833 61.085 51.5443 61.1059C51.6837 61.1557 51.813 61.1487 51.9624 61.1238C52.1017 61.0989 52.2511 61.088 52.3905 61.073C52.4502 61.066 52.51 61.079 52.5399 61.1457C52.5498 61.1875 52.5896 61.1826 52.6294 61.1746C52.8286 61.1318 53.0376 61.1248 53.2467 61.1258C53.3761 61.1268 53.5056 61.1238 53.635 61.1477C53.9536 61.2065 54.1925 61.08 54.4016 60.8679C54.4614 60.8052 54.521 60.7364 54.5708 60.6667C54.6704 60.5413 54.7898 60.4795 54.9491 60.4915C55.2777 60.5154 55.5366 60.3869 55.7656 60.1808C55.7956 60.1595 55.8294 60.1439 55.8651 60.135C55.9945 60.1091 56.114 60.0683 56.2434 60.0165C56.3729 59.9617 56.5023 59.9328 56.6417 59.9279C56.8408 59.9219 57.0399 59.886 57.2291 59.8293C57.4083 59.7745 57.5974 59.7526 57.7865 59.7546C58.0056 59.7576 58.2146 59.7167 58.4138 59.659C58.6228 59.5992 58.8419 59.5445 59.0509 59.4877C59.2501 59.4329 59.4293 59.3413 59.5986 59.2169C59.7977 59.0705 59.8375 58.8773 59.7976 58.6522C59.7578 58.5009 59.6882 58.3635 59.5986 58.24C59.4592 58.0677 59.3297 57.8934 59.1804 57.7252C58.8419 57.3089 58.5034 56.8827 58.1948 56.4406C58.0653 56.2554 57.9061 56.0901 57.7568 55.9168C57.6174 55.7435 57.458 55.5762 57.3186 55.4C57.0299 55.0395 56.7512 54.6711 56.4624 54.3156C56.2633 54.0786 56.0543 53.8555 55.8452 53.6314C55.5266 53.2909 55.1981 52.9543 54.8695 52.6157C54.77 52.5092 54.6903 52.3907 54.6107 52.2672C54.4613 52.0422 54.2921 51.8261 54.1328 51.607C54.0233 51.4526 53.9038 51.3033 53.7943 51.1469C53.6363 50.9111 53.4451 50.6991 53.2268 50.5176C52.9878 50.3234 52.739 50.1322 52.5 49.942C52.2013 49.706 51.9326 49.4441 51.6638 49.1653C51.4951 48.9832 51.345 48.7847 51.2157 48.5728C51.0265 48.2701 50.8174 47.9793 50.5984 47.6965C50.4391 47.4993 50.2998 47.2982 50.1504 47.099C49.5929 46.3323 48.9457 45.6472 48.2189 45.0377C48.0397 44.8884 47.8606 44.7291 47.6914 44.5737C47.542 44.4373 47.3826 44.3009 47.2333 44.1605C47.1537 44.0808 47.0641 43.9961 46.9944 43.9045C46.855 43.7243 46.7156 43.553 46.5265 43.4206C46.407 43.3399 46.3273 43.2314 46.2377 43.1188C46.073 42.8826 45.8405 42.702 45.5707 42.601C45.3716 42.5273 45.1526 42.4815 44.9336 42.4497C44.6239 42.4018 44.311 42.3772 43.9976 42.376C43.8284 42.376 43.709 42.4636 43.5696 42.5313C43.47 42.6658 43.3704 42.8022 43.3604 42.9794C43.3556 42.9897 43.3532 43.0009 43.3532 43.0123C43.3532 43.0237 43.3556 43.0349 43.3604 43.0452C43.3903 43.2772 43.261 43.4146 43.0818 43.5231C42.9723 43.5869 42.8627 43.6426 42.7532 43.7004C42.7133 43.7203 42.6735 43.7422 42.6337 43.7552C42.5242 43.79 42.4147 43.6855 42.4346 43.566C42.4524 43.5024 42.491 43.4467 42.5441 43.4076C42.6337 43.3529 42.7134 43.2911 42.8129 43.2523C42.9424 43.1965 43.0419 43.1029 43.1116 42.9804C43.1315 42.9426 43.1614 42.9077 43.1813 42.8699C43.2112 42.8231 43.2012 42.7932 43.1514 42.7653C42.9963 42.6837 42.8276 42.6311 42.6536 42.61C42.5278 42.5992 42.4015 42.5958 42.2753 42.6C42.0961 42.604 42.0066 42.6837 41.9767 42.8589V42.8789C41.9866 43.0511 41.897 43.1676 41.7775 43.2742C41.668 43.3668 41.5783 43.4724 41.4887 43.5799C41.3593 43.7392 41.1802 43.8428 40.9811 43.9085C40.3539 44.1156 39.8062 44.4482 39.2885 44.8505C39.189 44.9262 39.0993 45.0158 39.0097 45.1015C38.9415 45.1592 38.8986 45.2415 38.8903 45.3305C38.8903 45.4371 38.8305 45.5257 38.7808 45.6123C38.5717 45.932 38.3726 46.2526 38.1635 46.5693C38.0142 46.7824 37.8649 46.9915 37.7155 47.1966C37.606 47.345 37.4865 47.4834 37.3769 47.6248C37.357 47.6547 37.367 47.6776 37.3969 47.6905C37.4566 47.7134 37.5064 47.7055 37.5662 47.6796C37.6956 47.6198 37.825 47.5671 37.9445 47.5083C38.0839 47.4466 38.2233 47.4047 38.3627 47.3809C38.4153 47.372 38.4686 47.369 38.5219 47.3719C38.6015 47.3789 38.6613 47.4366 38.6812 47.5213C38.6925 47.5608 38.6897 47.6031 38.6733 47.6408C38.657 47.6786 38.6282 47.7095 38.5917 47.7284C38.5484 47.7522 38.5012 47.7681 38.4523 47.7752C38.1237 47.8309 37.8449 47.9823 37.5662 48.1456C37.5562 48.1526 37.5363 48.1616 37.5263 48.1705C37.3073 48.3597 37.0386 48.4473 36.7498 48.4812C36.5597 48.5039 36.3704 48.5331 36.1823 48.5688C36.0429 48.5957 35.8936 48.6236 35.7543 48.6784C35.2863 48.8725 34.8183 49.0866 34.3902 49.3754C34.3504 49.4033 34.3105 49.4322 34.2707 49.465C34.2398 49.4868 34.2129 49.5138 34.1911 49.5447C34.1494 49.6692 34.0647 49.7748 33.9522 49.8425C33.9223 49.8604 33.9025 49.9112 33.8825 49.949C33.7332 50.2149 33.554 50.4519 33.3648 50.6839C33.2155 50.8582 33.086 51.0444 32.9566 51.2316C32.8172 51.4397 32.7176 51.6667 32.6479 51.9087C32.5782 52.1617 32.4986 52.4136 32.4289 52.6675C32.3791 52.8597 32.2995 53.0399 32.1999 53.2072C32.0705 53.4054 31.9411 53.6016 31.8017 53.7898C31.6125 54.0507 31.4632 54.3365 31.3736 54.6472C31.3039 54.8563 31.2243 55.0614 31.1347 55.2626C31.0849 55.3811 31.0152 55.4936 30.9355 55.5991C30.7762 55.8122 30.597 56.0054 30.4078 56.1867C30.2884 56.3012 30.1789 56.4286 30.0594 56.5531C29.9399 56.6885 29.8205 56.826 29.701 56.9644C29.6313 57.048 29.5517 57.1307 29.492 57.2223C29.4024 57.3647 29.2928 57.4892 29.1633 57.5977C29.004 57.7291 28.8647 57.8775 28.7453 58.0488C28.6955 58.1265 28.6457 58.2111 28.6158 58.2997C28.576 58.4212 28.5162 58.5288 28.4465 58.6303C28.3919 58.6991 28.3513 58.7779 28.3271 58.8624C28.3176 58.898 28.3002 58.9309 28.276 58.9587C28.2519 58.9865 28.2216 59.0084 28.1877 59.0227C28.1279 59.0555 28.0583 59.0864 27.9886 59.1153C27.8592 59.173 27.7496 59.2467 27.6899 59.3901C27.67 59.4588 27.6202 59.4927 27.5505 59.5066C27.4808 59.5216 27.4012 59.5375 27.3315 59.5574C27.212 59.5903 27.1224 59.653 27.0826 59.7775C27.0527 59.8671 26.9931 59.905 26.9134 59.9298C26.6645 60.0055 26.4156 60.0722 26.1667 60.1111C26.0672 60.127 25.9675 60.142 25.858 60.1619C25.7386 60.1868 25.6191 60.2296 25.5196 60.2943C25.4203 60.3466 25.3427 60.4323 25.3006 60.5363C25.2508 60.6548 25.2806 60.7544 25.3901 60.8211C25.4275 60.8445 25.4676 60.8632 25.5096 60.8768C25.6788 60.9217 25.8481 60.9844 26.0174 61.0033C26.3957 61.0431 26.774 61.0909 27.1623 61.084C27.2121 61.083 27.2717 61.083 27.3315 61.077C27.3646 61.0747 27.3968 61.0653 27.426 61.0495C27.4552 61.0337 27.4807 61.0118 27.5008 60.9854C27.5218 60.9626 27.5375 60.9354 27.547 60.9059C27.5564 60.8764 27.5594 60.8451 27.5556 60.8144C27.5518 60.7836 27.5414 60.754 27.5251 60.7277C27.5087 60.7013 27.4868 60.6788 27.4609 60.6618C27.4012 60.6239 27.3415 60.596 27.2917 60.5652C27.242 60.5403 27.1922 60.5184 27.1523 60.4915C27.1424 60.4865 27.1424 60.4646 27.1424 60.4536C27.1523 60.4427 27.1622 60.4307 27.1722 60.4287C27.202 60.4248 27.232 60.4218 27.2618 60.4248C27.7596 60.4805 28.2574 60.4287 28.7453 60.3451C28.9046 60.3182 29.0638 60.2853 29.2231 60.2515C29.3625 60.2196 29.5019 60.1609 29.5716 60.0165C29.6014 59.9587 29.6612 59.9398 29.7209 59.9368C29.7807 59.9338 29.8503 59.9308 29.92 59.9298C30.2784 59.9259 30.6469 59.9239 31.0152 59.9209H31.1048C31.2541 59.9249 31.3935 59.889 31.4931 59.7586C31.523 59.7158 31.5628 59.7157 31.6026 59.7426C31.6325 59.7576 31.6523 59.7735 31.6722 59.7924C31.732 59.8392 31.7619 59.895 31.7221 59.9667C31.6922 60.0284 31.6822 60.0912 31.7221 60.1539C31.742 60.1828 31.7719 60.2166 31.7719 60.2435C31.7619 60.2953 31.7121 60.2953 31.6623 60.3003C31.3935 60.3401 31.1147 60.374 30.836 60.377C30.4178 60.3809 30.0096 60.4437 29.6015 60.5532C29.3725 60.6159 29.1434 60.6986 28.9144 60.7753C28.8583 60.7939 28.8048 60.8197 28.7552 60.852C28.7202 60.8757 28.6897 60.9058 28.6655 60.9406C28.566 61.079 28.6257 61.2234 28.795 61.2403C28.8647 61.2473 28.9444 61.2443 29.0141 61.2443H29.7209ZM47.9004 55.167C48.0398 55.1779 48.1891 55.1759 48.3384 55.2028C48.6271 55.2576 48.9258 55.2904 49.2245 55.3173C49.2842 55.3223 49.344 55.3293 49.3938 55.3442C49.5033 55.3731 49.5531 55.4597 49.5431 55.5593C49.5232 55.6639 49.4535 55.7236 49.344 55.7246C49.3207 55.7246 49.2975 55.7236 49.2743 55.7216C48.9955 55.6888 48.7069 55.6678 48.4281 55.621C48.0299 55.5543 47.6315 55.5553 47.2333 55.6589C46.9147 55.7425 46.5862 55.7674 46.2576 55.7644C46.2075 55.7641 46.1574 55.7587 46.1083 55.7485C45.9988 55.7236 45.959 55.629 45.9888 55.5274C46.0187 55.4358 46.0984 55.385 46.188 55.3701C46.2577 55.3572 46.3274 55.3582 46.407 55.3562C46.6758 55.3472 46.9545 55.3263 47.2233 55.2556C47.4424 55.1968 47.6714 55.166 47.9004 55.167ZM40.6724 48.8835C40.6824 48.8546 40.6924 48.8108 40.7123 48.772C40.7521 48.6873 40.8019 48.6027 40.8517 48.523C41.001 48.284 41.1603 48.045 41.3196 47.812C41.7178 47.2554 42.0961 46.6928 42.4346 46.1032C42.4564 46.0644 42.4831 46.0285 42.5142 45.9967C42.5939 45.9051 42.7333 45.9409 42.7631 46.0634C42.783 46.1152 42.783 46.165 42.7631 46.2128C42.7233 46.2795 42.6935 46.3452 42.6636 46.408C42.4246 46.8093 42.1757 47.2086 41.9069 47.593C41.668 47.9415 41.439 48.295 41.2001 48.6455C41.1404 48.7301 41.0806 48.8158 41.0208 48.8945C40.981 48.9442 40.9213 48.9841 40.8715 49.0219C40.8317 49.0488 40.7918 49.0488 40.742 49.0259C40.6923 48.998 40.6824 48.9522 40.6724 48.8835ZM37.5861 60.4626V60.4805C37.5164 60.4805 37.4467 60.4825 37.3671 60.4795C37.3571 60.4785 37.3173 60.4656 37.3173 60.4526C37.3073 60.4287 37.3173 60.3909 37.3272 60.375C37.4069 60.2943 37.4865 60.2226 37.5562 60.141C37.6757 60.0045 37.8349 59.9388 38.0141 59.891C38.1635 59.8472 38.3229 59.8323 38.4822 59.8333C38.5419 59.8342 38.6016 59.8412 38.6513 59.881C38.721 59.9398 38.8106 59.9537 38.8903 59.9667C38.9799 59.9786 39.0695 59.9916 39.1491 60.0095C39.2387 60.0284 39.2586 60.0583 39.2686 60.1429C39.2785 60.2296 39.2587 60.2674 39.1691 60.2824C39.0695 60.3023 38.96 60.3192 38.8505 60.3371C38.7012 60.361 38.5518 60.3929 38.3925 60.4068C38.1237 60.4317 37.8549 60.4447 37.5861 60.4626ZM39.4777 49.8205C39.6271 49.8265 39.6967 49.952 39.6469 50.0665C39.627 50.1392 39.5673 50.186 39.5075 50.2318C39.2288 50.4579 38.9201 50.6401 38.6214 50.8343C38.5666 50.8685 38.5059 50.8921 38.4423 50.904C38.3328 50.9239 38.2531 50.8303 38.283 50.7277C38.3029 50.6799 38.3229 50.6301 38.3527 50.5943C38.4125 50.5305 38.4821 50.4708 38.5518 50.421C38.8106 50.2368 39.0795 50.0565 39.3483 49.8783C39.3981 49.8464 39.4479 49.8315 39.4777 49.8205ZM31.1744 59.5534C31.1446 59.5495 31.1148 59.5504 31.0948 59.5435C31.065 59.5315 31.035 59.5086 31.035 59.4658C31.035 59.4329 31.0749 59.4081 31.1148 59.413L31.1844 59.426C31.2242 59.4409 31.2741 59.4957 31.2542 59.5136C31.2343 59.5345 31.1944 59.5445 31.1744 59.5534ZM32.6082 44.2252L35.8638 44.1535C36.9888 44.1276 38.1137 44.0977 39.2487 44.0738C39.3788 44.072 39.506 44.0352 39.617 43.9673C40.1945 43.6108 40.7719 43.2573 41.3593 42.9028C41.3792 42.8878 41.4092 42.8729 41.4291 42.853C41.439 42.84 41.439 42.8111 41.4291 42.7972C41.4191 42.7723 41.3991 42.7534 41.3792 42.7325C41.1303 42.4915 40.8815 42.2515 40.6425 42.0095C40.2343 41.6072 39.7963 41.2378 39.3583 40.8793C38.97 40.5666 38.5817 40.2539 38.2034 39.9323C37.7753 39.5669 37.3073 39.2552 36.8294 38.9534C36.7398 38.8977 36.6502 38.8439 36.5706 38.7911C36.3814 38.6816 36.2122 38.5591 36.0628 38.4097C36.0021 38.346 35.9212 38.3052 35.8339 38.2942C35.7821 38.2908 35.733 38.2701 35.6945 38.2355C35.6148 38.1688 35.5352 38.1638 35.4456 38.1658C35.0672 38.1767 34.6889 38.1887 34.3106 38.1966C34.0318 38.2026 33.7631 38.2036 33.4942 38.2086L30.8459 38.2604L28.9742 38.2982C28.2176 38.3141 27.4509 38.3281 26.6943 38.345C26.6207 38.3478 26.5474 38.3568 26.4753 38.3719C26.4318 38.3777 26.3906 38.3948 26.3558 38.4217C26.2662 38.5203 26.1468 38.5711 26.0473 38.6627C25.9079 38.8021 25.8182 38.9783 25.7485 39.1685C25.6888 39.3717 25.6589 39.5828 25.6291 39.7919C25.5892 40.0956 25.5395 40.3993 25.5096 40.705C25.4797 40.9739 25.4697 41.2448 25.4598 41.5146C25.4399 41.6969 25.43 41.8791 25.42 42.0623C25.4101 42.1928 25.4101 42.3252 25.4001 42.4566C25.4001 42.845 25.4199 43.2314 25.4498 43.6177C25.4697 43.7771 25.5096 43.9344 25.5395 44.0927C25.5495 44.1465 25.5793 44.1834 25.6291 44.2073C25.6689 44.2282 25.7187 44.2471 25.7585 44.2809C25.8481 44.3666 25.9576 44.3895 26.087 44.3855C26.3259 44.3795 26.5649 44.3775 26.8038 44.3726L28.566 44.3297L32.1601 44.2421C32.3393 44.2371 32.5086 44.2282 32.6082 44.2252ZM61.072 37.6569L59.738 37.6798C58.1782 37.7087 56.6184 37.7389 55.0586 37.7704L53.7644 37.8033C53.7346 37.8033 53.7146 37.8083 53.6847 37.8133C53.6748 37.8133 53.6649 37.8182 53.6649 37.8232C53.6649 37.8292 53.6649 37.8401 53.6749 37.8441C53.6948 37.867 53.7246 37.8869 53.7545 37.9099C53.7843 37.9338 53.8241 37.9557 53.8341 37.9865C53.854 38.0791 53.9337 38.1279 53.9934 38.1837C54.4514 38.5581 54.8994 38.9305 55.3474 39.3089C55.5067 39.4454 55.6659 39.5908 55.8153 39.7332C56.1538 40.0319 56.5023 40.3057 56.8607 40.5776C57.249 40.8753 57.6373 41.1741 58.0256 41.4758C58.1948 41.6112 58.3641 41.7546 58.5234 41.898C58.8121 42.145 59.1008 42.3989 59.3895 42.6409C59.6484 42.855 59.9171 43.0621 60.1859 43.2652C60.4547 43.4644 60.7435 43.56 61.082 43.548C61.9979 43.5152 62.9139 43.4953 63.8298 43.4724C64.2181 43.4624 64.6064 43.4594 64.9847 43.4514L66.9161 43.4056C67.6827 43.3857 68.4394 43.3638 69.206 43.3449C69.4151 43.3389 69.6242 43.3379 69.8333 43.3349C69.893 43.3349 69.9427 43.3349 69.9925 43.331C70.1318 43.321 70.2414 43.2503 70.2912 43.1139C70.3211 43.0223 70.3708 42.9436 70.4206 42.8629C70.57 42.6289 70.6496 42.371 70.6895 42.1021C70.7691 41.6879 70.7592 41.2726 70.6994 40.8574C70.6198 40.1728 70.4103 39.5097 70.0822 38.9037C69.9513 38.6576 69.7943 38.4262 69.6141 38.2136C69.4872 38.0619 69.3437 37.9249 69.1861 37.8053C68.9173 37.6012 68.6186 37.4956 68.2701 37.5036C67.3741 37.5235 66.4881 37.5384 65.592 37.5563L63.6208 37.5962L61.2513 37.644H61.072V37.6569ZM59.0709 42.1121L59.0808 42.1181L59.0709 42.1081L59.0609 42.1041C59.0609 42.1071 59.0609 42.1091 59.0709 42.1121ZM59.2402 42.2425C59.2601 42.2575 59.27 42.2724 59.2899 42.2874L59.2998 42.2943L59.2899 42.2834C59.2799 42.2684 59.2601 42.2535 59.2501 42.2396L59.2302 42.2296L59.2402 42.2425ZM59.0112 36.0895L52.6294 36.1095C52.2412 36.1114 51.8528 36.1194 51.4646 36.1264C51.4247 36.1264 51.3949 36.1324 51.3551 36.1403C51.3451 36.1413 51.3451 36.1652 51.3451 36.1742L51.375 36.228C51.4248 36.2777 51.4746 36.3226 51.5144 36.3773C51.6139 36.5406 51.7733 36.6482 51.9326 36.7497C52.3009 36.9848 52.6793 37.2198 53.0377 37.4597C53.1472 37.5275 53.2467 37.5534 53.3761 37.5514C54.1726 37.5394 54.9691 37.5314 55.7656 37.5215L59.1604 37.4777L62.655 37.4329C63.7501 37.4189 64.8453 37.405 65.9405 37.389C66.4781 37.3821 67.0257 37.3721 67.5633 37.3612C67.6429 37.3602 67.7226 37.3542 67.8022 37.3452C67.852 37.3403 67.8818 37.3114 67.8918 37.2626C67.9138 37.1886 67.9181 37.1104 67.9043 37.0345C67.8905 36.9585 67.8589 36.8869 67.8122 36.8254C67.7126 36.6721 67.5932 36.5366 67.4438 36.4211C67.2 36.1873 66.8756 36.0561 66.5378 36.0547C65.1838 36.0587 63.8298 36.0597 62.4758 36.0666C61.321 36.0726 60.1661 36.0836 59.0112 36.0925V36.0895ZM31.1447 37.8481C31.9312 37.8332 32.6181 37.8182 33.305 37.8083C33.8924 37.8003 34.4898 37.7983 35.0772 37.7933C35.1369 37.7933 35.1967 37.7933 35.2565 37.7904C35.4158 37.7854 35.4356 37.7505 35.346 37.6111C35.2757 37.509 35.1993 37.4112 35.1171 37.3183C34.8234 37.0108 34.5072 36.7255 34.1712 36.4649C34.0901 36.4007 34.0104 36.3346 33.9322 36.2668C33.9078 36.2417 33.8782 36.2222 33.8456 36.2095C33.813 36.1968 33.7781 36.1912 33.7431 36.1931C33.315 36.1981 32.8869 36.2001 32.4688 36.205C32.3393 36.205 32.2199 36.212 32.0904 36.213C31.4632 36.215 30.836 36.215 30.2088 36.218C29.243 36.221 28.2872 36.226 27.3315 36.2299C27.0925 36.2319 27.0926 36.2359 26.9731 36.443C26.8636 36.6322 26.8138 36.8334 26.8138 37.0515C26.8237 37.161 26.8237 37.2705 26.8337 37.3801C26.8436 37.5454 26.9233 37.6868 27.003 37.8252C27.0329 37.867 27.0727 37.885 27.1125 37.8869C27.1822 37.8869 27.2518 37.8889 27.3116 37.8869C28.2872 37.875 29.263 37.8601 30.2287 37.8481C30.5672 37.8441 30.9057 37.8481 31.1447 37.8481ZM65.592 55.3601C65.602 55.4468 65.602 55.5125 65.6219 55.5762C65.6618 55.7654 65.7912 55.8819 65.9803 55.9009C66.1055 55.9133 66.2318 55.8956 66.3487 55.8491C66.5379 55.7774 66.7071 55.6768 66.8664 55.5613C67.185 55.3303 67.4836 55.0644 67.7524 54.7736C68.2402 54.2409 68.6783 53.6623 69.0068 53.0081C69.1263 52.7651 69.2259 52.5152 69.2657 52.2443C69.2891 52.1287 69.2822 52.009 69.2458 51.8968C69.186 51.7006 69.0567 51.5921 68.8476 51.5901C68.7669 51.588 68.6864 51.5981 68.6087 51.6199C68.4295 51.6737 68.2702 51.7454 68.1109 51.852C67.7425 52.1089 67.414 52.4096 67.1153 52.7382C66.6374 53.2491 66.2192 53.8037 65.9006 54.4251C65.801 54.6213 65.7114 54.8214 65.6517 55.0345C65.6218 55.148 65.6119 55.2635 65.592 55.3601Z" fill="black"/>
<path d="M63.3219 57.8737C63.314 58.0644 63.3588 58.2535 63.4513 58.4204C63.5111 58.521 63.6107 58.5738 63.7301 58.5708C63.787 58.5691 63.8436 58.5624 63.8993 58.5509C64.5564 58.4224 65.1538 58.1595 65.7213 57.811C66.4081 57.377 67.0342 56.8536 67.5831 56.2546C68.1017 55.6881 68.5496 55.0609 68.9171 54.3865C69.0565 54.1216 69.1859 53.8497 69.2855 53.5689C69.2954 53.543 69.3054 53.5082 69.2954 53.4853C69.2736 53.4334 69.247 53.3837 69.2158 53.3369C69.2158 53.3339 69.1859 53.3409 69.176 53.3498C69.1461 53.4046 69.1063 53.4614 69.0764 53.5191C68.728 54.1514 68.3198 54.734 67.8021 55.2389C67.4436 55.5874 67.0454 55.8811 66.5875 56.0912C66.2888 56.2257 65.9801 56.3153 65.6615 56.3432C65.4823 56.3581 65.2932 56.376 65.114 56.38C65.0045 56.383 64.8949 56.3671 64.7854 56.3492C64.6425 56.3241 64.4956 56.334 64.3574 56.378C64.1383 56.4487 63.9491 56.5682 63.7898 56.7435C63.5807 56.9904 63.4315 57.2743 63.3518 57.5919C63.3319 57.6825 63.3319 57.7791 63.3219 57.8737ZM42.7033 59.5895C42.5839 59.5825 42.5142 59.5765 42.4445 59.5735C42.3964 59.5687 42.348 59.5754 42.303 59.5928C42.258 59.6103 42.2178 59.6382 42.1856 59.6741C42.1259 59.7418 42.0562 59.7617 41.9766 59.7727C41.8571 59.7896 41.7275 59.8215 41.6081 59.8474C41.494 59.869 41.3877 59.9202 41.2995 59.9958C41.2489 60.039 41.1864 60.066 41.1202 60.0734C41.0107 60.0973 40.8913 60.1262 40.7818 60.1631C40.6026 60.2218 40.5528 60.3692 40.6524 60.5275C40.722 60.642 40.8217 60.7117 40.961 60.7077C41.0407 60.7058 41.1203 60.7197 41.19 60.7605C41.2597 60.8023 41.3393 60.8163 41.419 60.7874C41.4588 60.7735 41.5086 60.7735 41.5484 60.7735C41.8272 60.7755 42.1059 60.7635 42.3847 60.7316C42.534 60.7137 42.6834 60.7326 42.8427 60.7396C42.9423 60.7446 43.0418 60.7585 43.1413 60.7655C43.3604 60.7804 43.5694 60.7217 43.7586 60.6361C43.8168 60.6125 43.8697 60.5776 43.9141 60.5333C43.9586 60.489 43.9937 60.4362 44.0174 60.3781C44.0871 60.2098 44.0274 60.0545 43.8681 59.9709C43.8076 59.9434 43.7442 59.923 43.679 59.9101C43.579 59.8851 43.4845 59.8419 43.4002 59.7827C43.2301 59.6425 43.0126 59.5733 42.7929 59.5895C42.7431 59.5925 42.7033 59.5895 42.7033 59.5895ZM29.462 62.536C29.5914 62.5111 29.7308 62.5032 29.8602 62.4574C30.0693 62.3847 30.2684 62.2901 30.4575 62.1965C30.5571 62.1526 30.6268 62.0819 30.6666 61.9834C30.7164 61.8738 30.6965 61.7722 30.5969 61.7195C30.2783 61.5621 29.9598 61.5004 29.6213 61.6289C29.54 61.6614 29.468 61.7138 29.4121 61.7812C29.3325 61.8858 29.2529 61.9854 29.1434 62.059C29.0737 62.0999 29.0439 62.1676 29.024 62.2403C29.004 62.3518 29.0439 62.4524 29.1534 62.4852C29.2529 62.5141 29.3524 62.5191 29.462 62.536ZM47.6813 62.2194C47.8406 62.2144 47.9799 62.1497 48.0993 62.0809C48.1889 62.0371 48.2188 61.9505 48.2088 61.8569C48.2088 61.7563 48.1392 61.7016 48.0496 61.6697C47.9878 61.6454 47.9246 61.6248 47.8604 61.6079C47.7721 61.5853 47.6789 61.5933 47.5957 61.6306C47.5125 61.6678 47.4444 61.7322 47.4025 61.8131C47.3228 61.9684 47.3826 62.1228 47.5419 62.1885C47.5916 62.2064 47.6414 62.2104 47.6813 62.2194ZM39.7762 62.0431C39.8658 62.0262 39.9754 62.0152 40.065 61.9864C40.1845 61.9525 40.2441 61.8668 40.2441 61.7613C40.2444 61.7019 40.2251 61.6441 40.1891 61.5969C40.1531 61.5497 40.1024 61.5158 40.0451 61.5004C39.9281 61.4677 39.8048 61.4654 39.6867 61.4934C39.5373 61.5263 39.4477 61.6308 39.378 61.7563C39.368 61.7922 39.368 61.842 39.368 61.8838C39.368 61.9296 39.3979 61.9694 39.4477 61.9794C39.5473 62.0053 39.6568 62.0222 39.7762 62.0431ZM42.992 61.7752C43.1015 61.7593 43.2309 61.7434 43.3504 61.7235C43.44 61.7095 43.4898 61.6478 43.5097 61.5641C43.5296 61.4825 43.5297 61.4018 43.46 61.3411C43.3898 61.2772 43.3039 61.2332 43.2111 61.2136C43.1016 61.1917 43.0119 61.2295 42.982 61.3341C42.967 61.4207 42.9252 61.5005 42.8625 61.5621C42.8426 61.5821 42.8427 61.6139 42.8328 61.6418C42.8228 61.7145 42.8626 61.7713 42.9423 61.7752H42.992ZM48.8261 61.7235C48.836 61.7533 48.8361 61.8051 48.856 61.8509C48.8958 61.9356 49.0153 61.9505 49.085 61.8828C49.1049 61.8619 49.1248 61.837 49.1248 61.8111C49.1597 61.7064 49.1597 61.5932 49.1248 61.4885C49.1149 61.4755 49.1049 61.4626 49.1049 61.4506C49.0452 61.367 48.9357 61.365 48.8859 61.4496C48.8677 61.481 48.8542 61.5149 48.846 61.5502C48.8361 61.6 48.836 61.6518 48.8261 61.7235ZM50.3793 60.9388C50.3693 60.8043 50.2897 60.7386 50.1603 60.7735C50.1185 60.7871 50.0784 60.8055 50.0408 60.8282C50.0212 60.8437 50.0056 60.8636 49.9952 60.8863C49.9848 60.9089 49.9799 60.9338 49.981 60.9587C49.981 61.0125 50.0208 61.0583 50.0706 61.0662C50.1303 61.0752 50.1801 61.0802 50.2399 61.0861C50.3195 61.0931 50.3693 61.0553 50.3693 60.9806C50.3771 60.9681 50.3806 60.9534 50.3793 60.9388ZM14.2892 67.7002C14.339 67.7022 14.3788 67.6673 14.3688 67.6225C14.3688 67.5767 14.329 67.5409 14.2892 67.5469C14.2494 67.5528 14.2196 67.5767 14.2196 67.6156C14.2096 67.6614 14.2394 67.6982 14.2892 67.7002Z" fill="black"/>
</svg>
