<svg width="92" height="92" viewBox="0 0 92 92" fill="none" xmlns="http://www.w3.org/2000/svg">
<path d="M46.0699 91.1312C70.813 91.1312 90.8713 71.0687 90.8713 46.3205C90.8713 21.5722 70.813 1.50977 46.0699 1.50977C21.3267 1.50977 1.2684 21.5722 1.2684 46.3205C1.2684 71.0687 21.3267 91.1312 46.0699 91.1312Z" stroke="black" stroke-width="1.025"/>
<path d="M45.9165 62.9752C49.8232 63.3237 53.4382 62.8039 56.8491 61.0872C64.2583 57.3569 67.9539 48.8259 64.4186 40.3179C63.5972 38.3422 62.4244 36.5827 60.9678 35.0203C60.5646 34.5891 60.0798 34.2336 59.6268 33.8492C59.1764 33.4653 58.7193 33.0891 58.2559 32.721C57.688 32.2717 57.1125 31.8321 56.5295 31.4025C55.8366 30.8957 55.1695 30.6467 54.4219 31.3946C54.1282 31.6893 53.6214 31.3637 53.6752 30.8817C53.7458 30.2464 53.5856 29.9298 52.9534 29.7087C46.8295 27.5578 40.9466 27.977 35.4708 31.547C31.4895 34.143 29.2086 37.9449 28.5346 42.6461C28.2916 44.3429 28.3135 46.0806 28.7596 47.7694C28.7894 47.881 28.9089 48.0054 29.0134 48.0473C29.0871 48.0741 29.2514 47.9935 29.3052 47.9138C29.6815 47.3711 30.022 46.8025 30.4172 46.2758C30.5028 46.1612 30.8483 46.0885 30.9339 46.1622C31.1121 46.3126 31.3461 46.6203 31.2943 46.7826C30.9757 47.8003 30.5048 48.7612 29.6417 49.4244C29.2833 49.6993 29.3161 49.9323 29.4256 50.2529C30.235 52.605 31.5233 54.6783 33.2128 56.4856C36.6974 60.2129 41.0202 62.304 45.9165 62.9752ZM64.1428 48.0174C63.6788 52.2306 60.9848 55.443 57.4425 56.4826C55.4015 57.0811 53.475 56.8331 51.8353 55.441C49.5325 53.4863 48.3577 51.0018 48.6106 47.9158C48.7928 45.6922 49.8362 43.9097 51.3096 42.3085C53.1435 40.3179 55.4772 39.6019 58.0926 39.583C58.3524 39.582 58.6392 39.6069 58.8692 39.7125C60.6403 40.527 62.2352 41.5487 63.1462 43.379C63.9656 45.025 64.2593 46.7577 64.1428 48.0174ZM35.8631 39.3609C35.9368 38.623 36.2703 38.0953 36.8696 37.8254C36.9652 37.7816 37.1524 37.8095 37.2261 37.8802C37.3545 38.0047 37.5327 38.2088 37.5068 38.3422C37.3913 38.9327 37.1046 39.4466 36.5481 39.7344C36.4087 39.8051 36.1767 39.7583 36.0124 39.6965C35.9328 39.6667 35.9129 39.4784 35.8631 39.3609ZM41.9621 45.3108C41.8516 45.2501 41.6813 45.2142 41.6415 45.1236C41.5708 44.9593 41.4872 44.6765 41.5668 44.5938C41.9212 44.2224 42.3235 43.8938 42.7287 43.5762C42.7974 43.5224 43.0174 43.5582 43.0851 43.6299C43.2115 43.7633 43.3708 43.9665 43.3489 44.1179C43.2663 44.7223 42.5982 45.265 41.9621 45.3108ZM43.5261 58.9054C43.5779 58.292 44.0916 57.6846 44.7408 57.4605C44.8373 57.4256 45.0245 57.4735 45.0852 57.5511C45.1987 57.6915 45.3411 57.9016 45.3082 58.049C45.1699 58.7013 44.5476 59.224 43.9383 59.2051C43.791 59.1991 43.6496 58.998 43.5261 58.9054ZM44.8314 36.8914C44.8911 36.9193 44.9528 36.9421 45.0076 36.978C45.2595 37.1453 45.2963 37.5685 45.0872 37.8483C44.7029 38.3602 44.2559 38.5026 43.9393 38.2108C43.8873 38.1701 43.8462 38.117 43.8198 38.0564C43.6645 37.5297 44.2659 36.8406 44.8314 36.8914ZM40.6778 32.6075C40.5742 32.5457 40.4209 32.5099 40.3771 32.4203C40.1581 31.9762 40.3313 31.5001 40.7723 31.2721C41.0561 31.1257 41.4712 31.3717 41.4941 31.6993C41.526 32.1693 41.1875 32.5457 40.6778 32.6075ZM45.1579 54.5408C45.5661 54.5 45.7861 54.7201 45.7652 54.9929C45.7453 55.2717 45.6059 55.4609 45.3202 55.5187C45.0982 55.5625 44.8154 55.2986 44.8762 55.0427C44.9229 54.8356 45.0882 54.6573 45.1569 54.5408H45.1579ZM56.5843 37.0537C56.5355 36.7559 56.7187 36.5837 56.9785 36.4971C57.2852 36.3955 57.4853 36.5717 57.555 36.8456C57.6336 37.1433 57.4524 37.3375 57.1737 37.4022C56.8939 37.466 56.6729 37.3713 56.5843 37.0537Z" fill="black"/>
</svg>
