<svg width="92" height="92" viewBox="0 0 92 92" fill="none" xmlns="http://www.w3.org/2000/svg">
<path d="M45.8992 91.1312C70.6424 91.1312 90.7007 71.0687 90.7007 46.3205C90.7007 21.5722 70.6424 1.50977 45.8992 1.50977C21.1561 1.50977 1.09778 21.5722 1.09778 46.3205C1.09778 71.0687 21.1561 91.1312 45.8992 91.1312Z" stroke="black" stroke-width="1.025"/>
<path d="M33.7829 62.6724C34.1712 62.6853 34.5097 62.6385 34.8383 62.5648C35.2166 62.4811 35.595 62.3886 35.9832 62.3408C36.4213 62.287 36.8593 62.2362 37.2974 62.2402C37.7155 62.2442 38.1436 62.2591 38.5618 62.276C39.2089 62.3029 39.846 62.3278 40.4932 62.3676C41.3593 62.4204 42.2354 62.4194 43.1016 62.4303C43.4799 62.4353 43.8484 62.4224 44.2168 62.4144C44.5055 62.4084 44.7842 62.3527 45.053 62.2611C46.3174 61.8369 47.5121 61.2952 48.6471 60.6081C48.9159 60.4488 49.1648 60.2735 49.4137 60.0873C49.6825 59.8782 49.9812 59.7258 50.3098 59.6421C50.5885 59.5724 50.8672 59.4868 51.1361 59.4151C52.0122 59.1861 52.7987 58.7688 53.5355 58.2609C54.2622 57.764 54.8795 57.1477 55.4868 56.5263C56.0144 55.9896 56.4326 55.3672 56.8408 54.7399C57.1295 54.2917 57.3784 53.8207 57.6074 53.3418C57.6457 53.2809 57.6758 53.2153 57.697 53.1465C57.8164 52.8199 57.926 52.4883 58.0852 52.1786C58.1426 52.0796 58.1671 51.9649 58.155 51.851C58.1451 51.7176 58.0653 51.616 57.9359 51.5881C57.8065 51.5602 57.677 51.5523 57.5576 51.6379C57.1195 51.9327 56.6815 52.2095 56.2534 52.5082C55.9049 52.7492 55.6261 53.0679 55.3474 53.3855C55.1582 53.6026 54.9791 53.8207 54.7799 54.0318C54.541 54.2967 54.2721 54.5347 53.9834 54.7488C53.2168 55.3084 52.3805 55.6968 51.4845 55.9776C51.3849 56.0095 51.2854 56.0344 51.1859 56.0095C51.1498 56.0026 51.1172 55.9835 51.0936 55.9554C51.0701 55.9272 51.057 55.8918 51.0565 55.8551C51.0764 55.6749 51.1261 55.5096 51.2854 55.407C51.385 55.3413 51.4944 55.2785 51.604 55.2288C51.9325 55.0834 52.271 54.9529 52.5896 54.8015C53.0376 54.5914 53.4359 54.3097 53.7943 53.9651C54.2025 53.5827 54.5808 53.1824 54.9591 52.7771C55.3175 52.3937 55.7058 52.0452 56.1439 51.7525C56.6716 51.4 57.1992 51.0484 57.7567 50.7447C57.8663 50.6859 57.9658 50.6132 58.0653 50.5435C58.2246 50.433 58.3839 50.3225 58.583 50.2926C58.6328 50.2857 58.6826 50.2577 58.7224 50.2269C59.1605 49.8694 59.5687 49.486 59.8973 49.021C60.2159 48.5738 60.4548 48.0929 60.6041 47.5651C60.6738 47.3381 60.7434 47.112 60.7932 46.882C60.8928 46.3841 60.8729 45.8812 60.8131 45.3814C60.7175 44.5221 60.4392 43.6933 59.9968 42.9506C59.947 42.853 59.8873 42.7534 59.8375 42.6568C59.6583 42.3651 59.4591 42.0932 59.1903 41.8781C59.1326 41.8366 59.0822 41.7858 59.041 41.7278C58.9115 41.5356 58.7224 41.4071 58.5332 41.2837C58.3341 41.1542 58.145 41.0237 57.9459 40.8933C57.916 40.8764 57.8862 40.8644 57.8662 40.8435C57.6074 40.5936 57.2689 40.49 56.9702 40.3237C56.333 39.9741 55.7655 39.5479 55.3075 38.9803C55.0088 38.6119 54.77 38.2046 54.5211 37.8093C54.1627 37.2676 53.8042 36.7328 53.3761 36.2469C53.2517 36.0972 53.1037 35.9687 52.938 35.8665C52.49 35.6056 52.0421 35.3587 51.5542 35.1924C51.2655 35.0918 50.9668 35.033 50.6582 34.9952C50.4292 34.9663 50.2101 34.9992 50.0011 35.0898C49.8418 35.1585 49.6725 35.2123 49.4933 35.2262C49.334 35.2382 49.1946 35.1993 49.0851 35.0639C48.9756 34.9145 48.8064 34.8259 48.6471 34.7393C48.2744 34.5456 47.8696 34.4215 47.4524 34.3728C46.5525 34.2503 45.6362 34.3508 44.7842 34.6656C44.2366 34.8717 43.7388 35.1674 43.3008 35.5727C42.8428 36.0019 42.4247 36.4669 42.0762 36.9887C41.9568 37.168 41.8572 37.3552 41.7875 37.5613C41.7178 37.7446 41.6382 37.9218 41.5685 38.1021C41.5441 38.1649 41.5053 38.2211 41.4551 38.2661C41.4049 38.3111 41.3448 38.3436 41.2797 38.361C41.1503 38.3959 41.0508 38.4815 40.9412 38.5651C40.6724 38.7772 40.4434 39.0172 40.2443 39.293C39.9655 39.6754 39.7166 40.0767 39.5075 40.4989C39.3482 40.8126 39.2288 41.1412 39.1591 41.4828C39.0894 41.8074 39.0994 42.1351 39.199 42.4557C39.2189 42.5184 39.2487 42.5354 39.3085 42.5105C39.5872 42.4059 39.866 42.3561 40.1547 42.3472C40.4534 42.3372 40.7421 42.2595 40.991 42.0833C41.1403 41.9777 41.2997 41.8851 41.459 41.7805C41.907 41.4688 42.4048 41.3135 42.9424 41.2508C43.3406 41.204 43.7388 41.185 44.137 41.197C44.4258 41.205 44.7145 41.2518 44.9932 41.3264C45.1724 41.3742 45.3417 41.4439 45.4711 41.5814C45.5209 41.6321 45.5707 41.6899 45.6005 41.7517C45.6702 41.8901 45.6006 42.0514 45.4513 42.0892C45.3793 42.105 45.305 42.1073 45.2322 42.0962C45.1507 42.084 45.0707 42.0636 44.9932 42.0355C44.4556 41.8403 43.8882 41.8522 43.3307 41.8921C43.1117 41.907 42.9026 41.9488 42.6835 41.9827C42.3848 42.0305 42.116 42.152 41.8671 42.3183C41.6779 42.4418 41.4888 42.5613 41.2996 42.6867C40.9611 42.9158 40.5728 43.0123 40.1647 43.0223C39.8262 43.0313 39.5275 43.1358 39.2388 43.3051C39.0795 43.3997 38.9301 43.5013 38.7708 43.6028C38.6513 43.6835 38.5319 43.7612 38.3825 43.7502C38.3327 43.7472 38.2831 43.7761 38.2432 43.808C37.6061 44.3656 36.9091 44.8636 36.3117 45.474C35.2593 46.5289 34.3911 47.7527 33.7432 49.0947C33.6237 49.3367 33.554 49.5926 33.4843 49.8495L32.8571 52.2254C32.8173 52.3738 32.7873 52.5262 32.6977 52.6576C32.6878 52.6746 32.6878 52.6935 32.6778 52.7134C32.6479 52.81 32.6679 52.9145 32.7276 52.9673C32.8172 53.033 32.9168 53.041 32.9865 52.9872C33.3549 52.7423 33.7729 52.6268 34.1513 52.4346C34.3703 52.324 34.5893 52.2035 34.7984 52.0701C35.2753 51.7648 35.666 51.3424 35.9334 50.8433C36.0429 50.6451 36.1425 50.444 36.2521 50.2458C36.4412 49.8923 36.6801 49.5697 36.9689 49.2948C37.1282 49.1484 37.3073 49.019 37.5064 48.9303C37.5823 48.9009 37.6651 48.8943 37.7447 48.9113C37.8243 48.9283 37.8972 48.9681 37.9545 49.0259C38.0441 49.1265 38.064 49.253 37.9943 49.3645C37.9247 49.4571 37.8549 49.5418 37.7752 49.6235C37.7155 49.6892 37.6359 49.7469 37.5662 49.8047C37.3808 49.9517 37.2254 50.1328 37.1083 50.3384C36.8594 50.7646 36.6005 51.1829 36.3616 51.613C36.0728 52.1498 35.6348 52.5471 35.1171 52.8598C34.8383 53.0301 34.5496 53.1724 34.241 53.2939C33.9025 53.4264 33.5739 53.5598 33.2354 53.6823C32.8272 53.8307 32.4588 54.0468 32.1104 54.2947C31.9511 54.4003 31.8018 54.4968 31.6425 54.5994C31.6013 54.6255 31.5643 54.6577 31.5329 54.695C31.3935 54.8752 31.2541 55.0545 31.1844 55.2706C31.0948 55.5125 31.0152 55.7545 30.9355 55.9985C30.8559 56.2743 30.8061 56.5572 30.826 56.848C30.836 56.9187 30.836 56.9943 30.8161 57.062C30.8007 57.1304 30.7701 57.1944 30.7265 57.2492C30.6867 57.308 30.607 57.296 30.5771 57.2353C30.5771 57.2253 30.5672 57.2164 30.5672 57.2064C30.4975 56.9694 30.3283 56.8111 30.1292 56.6687C29.5282 56.2243 28.8591 55.8806 28.148 55.651C27.7497 55.5245 27.4311 55.3084 27.1921 54.9589C27.0333 54.7195 26.8306 54.5124 26.5948 54.3485C26.4952 54.2788 26.3858 54.213 26.2763 54.1762C26.0572 54.1095 25.9078 54.2031 25.8481 54.4152C25.8282 54.5128 25.8082 54.6194 25.8182 54.7189C25.8481 55.0247 25.9079 55.3253 26.0174 55.6151C26.1568 55.9597 26.2762 56.3072 26.4753 56.6229C26.5151 56.6916 26.545 56.7722 26.5649 56.8519C26.6346 57.292 26.8238 57.6913 27.0229 58.0847C27.5593 59.1658 28.3693 60.0877 29.3725 60.7584C30.4179 61.4685 31.5429 62.034 32.7276 62.4812C33.0861 62.6186 33.4444 62.7012 33.7829 62.6724ZM52.5696 46.1153C52.4004 46.1182 52.3109 46.0983 52.2611 46.0087C52.1914 45.9002 52.2113 45.7906 52.281 45.691C52.3109 45.6412 52.3507 45.5944 52.4005 45.5566C52.4801 45.4938 52.5697 45.4321 52.6593 45.3843C52.7888 45.3116 52.9281 45.2459 53.0674 45.1881C54.0332 44.7978 55.0287 44.6893 56.0542 44.7908C56.4027 44.8257 56.7412 44.8267 57.0697 44.6664C57.2191 44.5937 57.3684 44.6355 57.458 44.75C57.5476 44.8605 57.5576 45.0258 57.4779 45.1543C57.4481 45.2085 57.4067 45.2557 57.3569 45.2925C57.3071 45.3293 57.2498 45.3548 57.1892 45.3674C56.8407 45.465 56.4923 45.5217 56.1339 45.4759C55.7772 45.4337 55.4174 45.4217 55.0586 45.4401C54.4414 45.4669 53.8441 45.5935 53.2666 45.8345C53.1272 45.8942 52.9978 45.9708 52.8484 46.0276C52.7389 46.0724 52.6194 46.1003 52.5696 46.1153ZM41.3892 59.1472C40.7839 59.1699 40.1789 59.0952 39.5972 58.9262C39.5574 58.9142 39.5176 58.9122 39.4778 58.9012C39.2992 58.8526 39.112 58.8451 38.9301 58.8794C38.7808 58.9033 38.6315 58.9102 38.4722 58.9132C38.3328 58.9152 38.2432 58.8335 38.1934 58.712C38.1436 58.5965 38.1735 58.491 38.2432 58.3974C38.2813 58.3487 38.3294 58.3088 38.3845 58.2806C38.4395 58.2524 38.5 58.2365 38.5618 58.2341C38.6713 58.2251 38.7708 58.2241 38.8703 58.2062C39.1093 58.1653 39.3383 58.1704 39.5673 58.2281C39.7067 58.263 39.8461 58.2988 39.9855 58.3287C40.1548 58.3646 40.3239 58.4063 40.5031 58.4263C41.0806 58.493 41.658 58.5049 42.2454 58.4332C42.345 58.4213 42.4446 58.4263 42.5441 58.4691C42.7034 58.5378 42.7632 58.7051 42.6835 58.8515C42.6521 58.906 42.6077 58.9519 42.5541 58.9849C42.4645 59.0337 42.3749 59.0735 42.2753 59.0984C41.9866 59.1701 41.6879 59.1422 41.3892 59.1472ZM57.5875 31.7459C57.5756 32.6152 57.4244 33.4768 57.1395 34.2981C56.9105 34.9255 56.6715 35.5468 56.3529 36.1324C56.2135 36.3833 56.0941 36.6442 55.9646 36.9001C55.9248 36.9728 55.8751 37.0037 55.7855 36.9788C55.6379 36.9343 55.4792 36.9431 55.3374 37.0037C55.1881 37.0644 55.1085 37.178 55.1184 37.3373C55.1184 37.417 55.1384 37.4986 55.1583 37.5753C55.218 37.7436 55.3175 37.888 55.427 38.0214C55.5365 38.1469 55.6361 38.2714 55.7357 38.4028C55.9746 38.7185 56.2533 38.9883 56.5719 39.2104C56.8607 39.4076 57.1593 39.5868 57.4481 39.776C57.5277 39.8258 57.6173 39.8716 57.677 39.9354C57.7567 40.017 57.8363 40.017 57.9259 39.9752C58.1449 39.8776 58.2147 39.7571 58.2147 39.5201C58.2176 39.3635 58.1646 39.211 58.0653 39.0899C57.9359 38.9196 57.936 38.7543 58.0156 38.5741C58.1351 38.3222 58.2247 38.0592 58.364 37.8232C58.8618 36.9977 59.2003 36.1125 59.4791 35.1974C59.6882 34.4903 59.8374 33.7684 59.9171 33.0325C59.9868 32.3494 60.0067 31.6653 59.947 30.9762C59.8736 30.108 59.6827 29.2537 59.3796 28.4369C59.0303 27.5118 58.4948 26.6682 57.8065 25.9583C56.8771 24.9942 55.6751 24.3375 54.3618 24.0763C53.8189 23.9592 53.2642 23.9058 52.709 23.917C51.8429 23.9419 50.9967 24.0862 50.1704 24.3481C50.1305 24.3601 50.1007 24.375 50.0609 24.3909C49.8916 24.4606 49.8617 24.5254 49.8816 24.6997C49.8916 24.867 49.9513 25.0203 50.0409 25.1607C50.1903 25.4156 50.3495 25.6646 50.5088 25.9155C50.5984 26.0589 50.7378 26.1545 50.8872 26.2282C51.0365 26.3039 51.1858 26.3208 51.3551 26.274C51.8031 26.1516 52.261 26.1007 52.729 26.1087C53.8241 26.1286 54.7899 26.4931 55.6262 27.1961C56.4326 27.8663 56.9503 28.7226 57.2689 29.7095C57.4879 30.3787 57.5775 31.0668 57.5875 31.7459Z" fill="black"/>
</svg>
