<svg width="1395" height="823" viewBox="0 0 1395 823" fill="none" xmlns="http://www.w3.org/2000/svg">
<g clip-path="url(#clip0_1_509)">
<path d="M1083.69 570.756C1086.59 568.481 1089.52 566.247 1092.38 563.919C1110.18 549.401 1130.02 538.593 1151.79 531.363C1162.78 527.709 1173.95 524.568 1185 521.082C1190.88 519.229 1196.76 517.313 1202.51 515.116C1209.44 512.471 1216.17 509.378 1221.71 504.223C1222.24 503.726 1222.88 503.313 1223.53 502.976C1224.72 502.355 1226.06 502.316 1226.94 503.319C1227.7 504.171 1228.56 505.456 1228.43 506.434C1228.19 508.342 1227.44 510.23 1226.66 512.025C1222.6 521.435 1216.58 529.523 1209.63 536.97C1202.2 544.934 1193.86 551.883 1185.39 558.711C1174.96 567.128 1165.64 576.59 1158.37 587.953C1154.35 594.245 1151.2 600.925 1149.61 608.223C1148.92 611.322 1148.52 614.57 1148.6 617.735C1148.73 623.559 1151.65 626.802 1157.34 627.98C1164.61 629.488 1171.19 627.675 1176.61 622.82C1180.44 619.389 1184.02 615.508 1187.01 611.326C1191.31 605.3 1195.25 599.031 1198.83 592.551C1203.71 583.699 1208.09 574.567 1212.7 565.566C1220.36 550.6 1228.75 536.083 1239.54 523.1C1260.17 498.29 1284.88 478.532 1313.54 463.708C1325.21 457.666 1337.68 453.74 1350.21 449.94C1357.52 447.722 1364.88 445.633 1372.13 443.197C1377.79 441.296 1383.55 440.314 1389.44 439.551C1396.04 438.699 1402.57 437.329 1409.11 436.151C1409.83 436.023 1410.53 435.727 1411.21 435.423C1412.39 434.896 1413.55 434.033 1413.08 432.676C1412.73 431.644 1411.77 430.52 1410.79 430.09C1409.78 429.652 1408.4 429.836 1407.23 430.043C1401.4 431.06 1395.58 432.144 1389.78 433.294C1386.83 433.882 1384.62 433.151 1382.56 430.836C1372.46 419.481 1370.04 406.613 1374.54 392.257C1376.95 384.582 1381.3 378.023 1386.28 371.851C1398.93 356.184 1414.27 344.111 1433.18 336.8C1441.01 333.777 1448.79 330.672 1456.53 327.431C1461.77 325.243 1466.95 322.915 1472.01 320.357C1480.82 315.9 1486.29 308.436 1489.96 299.5C1491.98 294.552 1492.1 289.453 1491.12 284.225C1490.06 278.657 1489.33 273.036 1488.31 267.462C1486.93 259.915 1488.37 252.769 1491.04 245.744C1494.36 237.072 1499.43 229.556 1505.97 223.018C1518.09 210.89 1531.56 200.6 1546.91 192.812C1554.83 188.791 1562.7 184.662 1570.48 180.378C1584.38 172.727 1597.11 163.373 1609.17 153.133C1620.57 143.453 1629.68 131.809 1637.24 118.953C1638.73 116.416 1639.6 113.521 1641.02 110.939C1641.83 109.488 1643.03 108.169 1644.31 107.107C1645.64 105.998 1648.04 106.988 1648.5 108.668C1648.75 109.613 1648.89 110.597 1649.01 111.568C1651.03 127.361 1650.83 143.103 1647.09 158.623C1642.16 179.034 1631.64 196.426 1617.31 211.559C1611.37 217.828 1605.06 223.754 1598.9 229.81C1592.54 236.057 1586.73 242.767 1581.87 250.251C1580.26 252.726 1578.66 255.256 1577.46 257.939C1573.04 267.857 1573.12 277.428 1579.55 286.702C1584.6 294.002 1589.37 301.506 1593.97 309.099C1598.59 316.722 1602.1 324.863 1604.26 333.567C1607.69 347.341 1607.34 360.918 1602.52 374.328C1593.83 398.473 1578.39 417.129 1556.54 430.463C1553.63 432.238 1550.34 433.535 1547.05 434.488C1529.75 439.505 1512.32 443.935 1494.46 446.541C1491.8 446.929 1489.15 447.628 1486.6 448.469C1485.93 448.689 1485.18 450.038 1485.27 450.774C1485.37 451.513 1486.4 452.667 1487.1 452.72C1490.01 452.958 1493.04 453.295 1495.89 452.792C1505.35 451.11 1514.78 449.233 1524.17 447.164C1530.67 445.74 1537.08 443.928 1543.52 442.218C1545.93 441.576 1547.98 442.023 1549.48 443.997C1551.41 446.532 1553.62 448.984 1554.96 451.823C1561 464.624 1562.17 477.793 1557.46 491.359C1554.1 501.071 1549.11 509.739 1542.04 517.212C1535.23 524.41 1527.84 530.96 1519.74 536.644C1502.96 548.405 1486.05 559.972 1469.26 571.716C1461.58 577.09 1453.95 582.543 1446.49 588.226C1439.6 593.471 1433.35 599.452 1427.64 605.967C1423.05 611.19 1419.21 616.902 1416.25 623.207C1413.88 628.251 1413.31 633.538 1413.4 639.06C1413.49 645.305 1420.32 651.79 1427.75 650.93C1430.66 650.595 1433.6 649.814 1436.32 648.719C1449 643.625 1460.82 636.976 1471.03 627.823C1474.86 624.383 1478.15 620.316 1481.62 616.492C1482.78 615.216 1483.7 613.718 1484.87 612.458C1487.31 609.842 1490.5 610.406 1491.94 613.791C1492.71 615.608 1493.24 617.514 1493.53 619.464C1495.71 634.216 1492.68 647.915 1484.91 660.587C1479.45 669.516 1472.6 677.27 1464.24 683.592C1459.52 687.161 1454.59 690.446 1449.71 693.794C1443.59 697.981 1437.37 701.991 1431.34 706.278C1426.08 710.002 1421.62 714.742 1418.22 720.219C1415.18 725.109 1413.25 730.339 1412.86 736.177C1412.36 743.824 1410.76 751.294 1408.64 758.669C1407.39 763.027 1405.38 766.983 1402.38 770.302C1398.91 774.139 1395.15 777.705 1391.46 781.35C1389.06 783.731 1386.11 784.643 1382.73 784.692C1369.64 784.873 1356.56 785.294 1343.48 785.4C1318.04 785.6 1292.6 785.612 1267.17 785.767C1231.37 785.98 1195.56 786.239 1159.76 786.495C1124.45 786.745 1089.14 787.009 1053.84 787.282C1019.26 787.548 984.696 787.84 950.125 788.093C918.025 788.331 885.925 788.522 853.825 788.76C815.304 789.046 776.786 789.365 738.265 789.655C702.464 789.922 666.658 790.165 630.853 790.429C595.789 790.69 560.729 790.973 525.664 791.23C490.356 791.486 455.043 791.713 419.734 791.967C383.929 792.227 348.128 792.499 312.322 792.771C277.755 793.037 243.183 793.325 208.616 793.578C176.268 793.814 143.923 793.995 111.58 794.226C72.3162 794.509 33.0586 794.792 -6.20387 795.126C-34.349 795.366 -62.4979 795.698 -90.644 795.946C-93.607 795.968 -96.569 795.823 -99.5158 795.513C-100.979 795.354 -102.393 794.895 -103.671 794.165C-106.937 792.264 -107.23 787.776 -104.306 785.407C-103.36 784.643 -102.227 784.103 -101.159 783.505C-82.2478 772.876 -67.0956 758.338 -55.769 739.846C-49.0565 728.887 -43.6093 717.255 -38.1232 705.665C-36.1276 701.454 -34.8498 696.893 -33.357 692.449C-18.6349 648.642 2.48484 608.074 28.5171 569.962C41.8907 550.38 55.7971 531.231 71.3426 513.285C86.0918 496.262 102.386 480.849 119.211 465.927C148.509 439.94 181.924 420.621 217.495 404.736C221.548 402.927 225.687 401.306 229.809 399.658C245.152 393.519 260.593 387.612 275.831 381.225C293.363 373.883 310.43 365.533 327.31 356.794C336.192 352.198 343.593 345.715 350.917 339.069C364.567 326.686 375.495 312.119 385.406 296.697C394.47 282.576 403.603 268.499 412.804 254.467C421.785 240.779 432.593 228.603 444.429 217.338C447.638 214.286 451.094 211.446 454.678 208.842C466.484 200.27 478.917 192.72 492.064 186.354C507.186 179.031 522.798 172.92 538.68 167.472C546.845 164.67 554.97 161.751 563.168 159.054C574.718 155.258 585.6 150.055 596.014 143.852C606.148 137.815 614.698 130.173 620.378 119.618C623.067 114.622 626.063 109.795 628.773 104.811C639.271 85.4827 653.233 68.951 669.781 54.6124C686.287 40.3116 705.512 30.9981 726.443 25.0928C733.8 23.0131 741.281 21.3993 748.842 20.2614C755.656 19.2379 762.393 17.5929 769.075 15.8849C772.449 15.0242 774.833 16.1202 777.029 18.3539C778.158 19.5061 777.851 22.2153 776.392 22.9172C774.86 23.654 773.211 24.265 771.549 24.5816C748.915 28.8883 730.512 40.8431 713.99 56.2332C706.83 62.9044 701.644 70.9678 697.495 79.7265C692.514 90.2347 688.576 101.063 686.437 112.578C684.592 122.514 681.922 132.291 678.343 141.773C673.498 154.608 666.073 165.905 657.593 176.601C648.247 188.394 636.864 197.724 623.63 204.763C614.921 209.393 606.003 213.627 597.173 218.024C588.562 222.316 579.901 226.506 571.341 230.898C564.92 234.191 559.313 238.647 554.293 243.813C552.747 245.4 551.347 247.133 549.928 248.84C543.818 256.217 541.961 264.558 544.458 273.806C546.462 281.208 547.135 288.907 546.444 296.543C545.267 309.832 539.834 320.693 528.244 327.954C525.529 329.655 522.737 331.239 519.979 332.874C515.52 335.506 510.967 337.997 506.622 340.81C503.695 342.707 500.691 344.179 497.356 345.275C486.949 348.696 477.376 353.77 469.066 360.979C466.661 363.065 464.593 365.556 462.49 367.964C461.877 368.663 461.371 369.72 461.366 370.616C461.36 371.459 461.924 372.456 462.535 373.095C462.943 373.521 464.108 373.814 464.54 373.541C467.024 371.968 469.576 370.416 471.754 368.466C476.763 363.986 482.31 360.35 488.222 357.226C489.09 356.769 490.018 356.425 490.946 356.093C491.979 355.723 492.226 356.55 492.268 357.227C493.381 375.122 486.111 389.42 472.875 400.837C467.287 405.655 461.072 409.766 455.012 414.012C446.926 419.675 438.623 425.032 431.252 431.658C423.852 438.309 417.524 445.839 412.413 454.37C410.244 457.99 408.465 461.767 408.437 466.144C408.412 469.971 410.427 472.854 414.182 473.637C416.064 474.03 418.111 474.093 420.016 473.829C424.942 473.153 429.547 471.328 434.048 469.283C459.207 457.851 479.339 440.55 494.461 417.439C497.431 412.894 500.362 408.317 503.109 403.64C515.99 381.7 532.446 362.841 551.778 346.355C562.506 337.206 573.481 328.448 585.604 321.203C586.866 320.448 588.092 319.44 589.467 319.13C590.479 318.9 592.07 319.279 592.733 320.001C593.404 320.737 593.517 322.255 593.375 323.371C593.268 324.244 592.496 325.108 591.849 325.816C590.851 326.906 589.752 327.912 588.618 328.864C579.032 336.897 571.784 346.859 565.131 357.296C560.183 365.059 556.7 373.492 554.519 382.412C552.298 391.509 550.367 400.678 548.336 409.824C546.568 417.794 544.171 425.548 540.791 432.992C537.076 441.171 531.971 448.371 525.837 454.902C519.482 461.666 511.943 466.686 503.509 470.453C495.625 473.973 487.723 477.458 479.895 481.099C477.222 482.341 474.665 483.881 472.219 485.526C471.051 486.314 470.063 487.559 469.383 488.81C468.996 489.52 469.075 490.888 469.535 491.54C469.986 492.176 471.335 492.743 472.04 492.526C474.615 491.727 477.116 490.667 479.58 489.566C483.856 487.654 488.08 485.624 492.338 483.671C492.745 483.486 493.371 483.301 493.663 483.484C493.955 483.667 494.167 484.372 494.061 484.747C490.346 497.779 486.56 510.786 482.841 523.816C478.476 539.122 469.465 551.148 456.908 560.69C450.002 565.936 442.704 570.632 434.683 573.892C428.777 576.292 422.573 578.105 416.356 579.587C397.358 584.109 378.182 587.437 358.53 587.044C356.368 587.003 354.175 587.525 352.039 587.998C351.523 588.111 350.903 589.03 350.848 589.623C350.798 590.213 351.255 591.059 351.76 591.434C352.517 591.997 353.486 592.477 354.409 592.578C358.32 593.014 362.207 593.421 366.193 593.309C380.559 592.898 394.682 590.73 408.708 587.856C411.588 587.265 413.506 588.066 415.257 590.009C417.985 593.026 419.642 596.51 419.89 600.645C420.226 606.181 419.376 611.437 416.842 616.432C414.141 621.77 410.815 626.684 406.396 630.692C400.552 635.996 394.465 641.033 388.46 646.158C384.515 649.518 380.448 652.742 376.576 656.187C371.384 660.803 366.785 665.979 363.372 672.059C360.242 677.641 358.917 683.535 361.305 689.825C362.949 694.151 365.537 697.746 369.894 699.508C373.058 700.787 376.438 702.115 379.783 702.29C402.524 703.487 422.664 696.906 439.471 681.244C445.155 675.945 449.208 669.385 451.789 662.104C454.585 654.211 456.878 646.14 459.349 638.136C461.385 631.54 463.128 624.847 465.418 618.342C471.14 602.092 480.048 587.689 491.241 574.618C511.7 550.731 537.089 533.59 565.246 520.181C580.633 514.808 593.786 505.627 606.372 495.635C611.954 491.204 616.868 485.933 622.067 481.025C623.142 480.01 624.071 478.846 625.188 477.885C626.199 477.015 628.247 477.082 629.386 477.856C630.512 478.621 630.854 479.771 630.856 481.055C630.856 481.543 630.843 482.057 630.7 482.521C627.147 494.314 624.251 506.333 618.013 517.163C611.833 527.886 604.976 538.093 596.737 547.373C592.481 552.167 588.424 557.15 584.473 562.199C576.17 572.822 572.108 585.04 570.821 598.379C570.208 604.744 569.083 611.075 567.888 617.364C565.234 631.318 558.656 643.295 549.007 653.633C547.154 655.618 545.19 657.495 543.323 659.467C543.023 659.785 542.955 660.328 542.782 660.767C543.217 660.865 543.716 661.143 544.081 661.026C546.421 660.258 548.828 659.604 551.031 658.541C562.423 653.046 572.998 646.289 582.511 637.908C601.833 620.892 615.537 600.107 624.346 575.998C631.37 556.77 638.29 537.504 645.463 518.334C652.12 500.544 659.005 482.836 667.995 466.042C674.762 453.398 682.438 441.332 690.957 429.803C704.02 412.121 720.031 397.597 738.554 385.826C746.05 381.065 753.574 376.294 761.39 372.103C767.025 369.081 770.54 364.7 772.468 358.889C773.627 355.391 774.474 351.773 775.215 348.155C780.925 320.427 793.497 296.158 812.337 275.151C823.639 262.547 836.753 252.154 852.106 244.774C858.998 241.461 865.92 238.206 872.829 234.922C877.063 232.91 881.313 230.927 885.524 228.872C893.825 224.828 901.061 219.349 907.502 212.748C912.38 207.746 916.425 202.216 919.182 195.775C920.831 191.92 922.615 188.121 924.21 184.245C930.896 167.973 941.166 154.262 953.9 142.257C976.074 121.358 1001.91 107.019 1031.24 98.9082C1038.89 96.7926 1046.69 95.7062 1054.62 95.4409C1058.06 95.3248 1061.49 94.7874 1064.94 94.5502C1068.38 94.311 1071.83 94.2665 1075.28 94.0273C1078.99 93.7756 1081.23 95.9667 1083.2 98.6197C1084.19 99.9452 1083.79 102.318 1082.26 103.197C1080.35 104.291 1078.32 105.178 1076.26 105.986C1070.75 108.152 1065.09 109.969 1059.71 112.391C1039.69 121.392 1021.99 133.791 1006.25 149.066C995.226 159.765 987.263 172.326 982.477 186.919C978.941 197.697 975.599 208.545 971.724 219.2C966.121 234.607 957.981 248.718 948.242 261.857C937.619 276.19 923.878 287.046 908.253 295.363C899.323 300.115 893.937 307.065 891.193 316.554C888.362 326.341 887.061 336.322 886.941 346.475C886.873 352.154 886.915 357.832 886.838 363.506C886.793 366.713 886.642 369.917 886.474 373.122C886.171 378.891 884.492 384.216 881.58 389.231C874.091 402.132 865.035 413.798 854.083 423.92C845.74 431.634 836.921 438.806 827.429 445.078C823.319 447.792 818.916 450.059 814.709 452.635C813.268 453.518 811.942 454.64 810.752 455.84C810.388 456.205 810.422 457.303 810.692 457.865C810.962 458.427 811.738 459.061 812.319 459.09C813.511 459.143 814.841 459.082 815.894 458.594C819.686 456.829 823.539 455.114 827.088 452.927C838.473 445.907 848.76 437.427 858.677 428.492C859.778 427.5 860.849 426.477 861.89 425.422C863.21 424.086 864.812 423.737 866.623 423.831C871.759 424.102 876.238 425.934 879.989 429.443C884.215 433.395 887.226 438.131 889.102 443.617C892.221 452.713 892.469 462.004 890.91 471.377C888.794 484.143 884.106 496.058 878.65 507.715C870.333 525.472 859.422 541.601 847.554 557.114C842.457 563.775 837.123 570.258 831.892 576.824C827.869 581.874 823.111 586.179 818.094 590.198C808.069 598.229 797.711 605.796 786.575 612.25C783.8 613.859 781.132 615.649 778.456 617.417C777.647 617.949 776.835 618.596 776.298 619.378C775.948 619.887 775.805 620.885 776.083 621.383C776.378 621.92 777.296 622.468 777.89 622.418C779.337 622.292 780.859 622.048 782.164 621.444C785.517 619.893 788.94 618.384 792.028 616.385C799.686 611.42 807.543 606.652 814.602 600.917C819.906 596.602 825.341 596.36 831.238 597.634C839.312 599.375 843.738 605.538 843.296 613.876C843.043 618.634 841.412 623.025 839.386 627.283C834.889 636.718 828.779 645.084 822.004 652.96C817.014 658.757 811.795 664.36 806.546 669.928C801.975 674.776 797.131 679.369 792.592 684.25C790.564 686.43 787.446 687.886 787.172 691.42C790.297 691.924 792.843 690.199 795.56 689.205C803.034 686.476 809.917 682.574 816.279 677.871C825.208 671.272 833.929 664.383 842.751 657.64C852.767 649.988 863.055 642.741 874.543 637.404C878.118 635.742 881.765 634.211 885.476 632.897C888.017 631.996 890.698 631.267 893.37 631.018C898.276 630.562 902.603 631.736 905.599 636.227C907.846 639.598 908.005 639.487 910.374 636.101C915.394 628.91 918.678 620.974 920.268 612.375C921.882 603.649 923.251 594.88 924.869 586.154C928.049 569.023 934.135 552.925 942.578 537.722C945.451 532.548 948.615 527.531 951.766 522.517C965.191 501.154 983.204 484.564 1005.15 472.303C1017.85 465.205 1030.88 458.686 1043.8 451.995C1058.7 444.282 1073.75 436.853 1088.55 428.948C1104.48 420.435 1119.36 410.276 1133.17 398.595C1135.6 396.53 1137.84 394.222 1140.14 392.01C1140.31 391.857 1140.48 391.523 1140.41 391.381C1140.33 391.205 1140.02 391.052 1139.78 391.041C1139.31 391.011 1138.8 391.007 1138.33 391.121C1131.99 392.653 1125.58 392.208 1119.17 391.94C1118.43 391.908 1117.69 391.838 1116.96 391.709C1103.38 389.297 1097.36 379.355 1098.46 368.163C1098.94 363.204 1100.37 358.517 1102.43 353.984C1106.79 344.348 1113.63 336.616 1121.17 329.421C1129.24 321.725 1138.15 315.087 1147.52 309.099C1157.71 302.589 1168.1 296.369 1178.21 289.75C1186.26 284.488 1194.25 279.074 1201.9 273.25C1210.96 266.35 1219.14 258.472 1225.6 248.971C1227.99 245.471 1229.87 241.768 1230.92 237.649C1237.28 212.936 1250.15 191.835 1267.04 173.024C1279.64 158.99 1294.1 147.097 1309.64 136.441C1325.13 125.811 1341.56 116.755 1357.98 107.678C1372.45 99.6828 1387.02 91.8333 1401.16 83.2886C1417.08 73.6644 1431.33 61.8577 1443.53 47.7176C1449.37 40.9661 1454.46 33.6976 1458.69 25.8481C1460.41 22.6432 1462.18 19.419 1461.13 15.3737C1460.52 13.0509 1462.26 11.189 1463.87 9.61851C1465.21 8.30752 1468.22 9.0366 1468.91 10.8152C1469.25 11.7176 1469.52 12.7052 1469.56 13.6686C1469.74 18.107 1469.86 22.5474 1469.96 26.9867C1470.16 36.2276 1468.23 45.1024 1465.44 53.8552C1460.09 70.6706 1452.13 86.2108 1442.68 101.048C1434.04 114.62 1424.07 127.163 1413.33 139.119C1397.97 156.217 1381.33 172.038 1364.66 187.834C1358.39 193.773 1352.32 199.913 1346.29 206.105C1336.07 216.626 1329.86 229.417 1325.85 243.36C1324.21 249.043 1322.79 254.791 1321.38 260.539C1316.01 282.582 1305.17 301.707 1290.57 318.905C1281.26 329.872 1270.99 339.762 1259.37 348.282C1255.75 350.946 1251.91 352.98 1247.52 354.101C1235.82 357.092 1224.2 360.464 1212.11 361.639C1210.69 361.777 1209.26 362.399 1207.95 363.045C1207.44 363.297 1206.98 364.231 1207 364.833C1207.03 365.447 1207.55 366.34 1208.08 366.58C1209.16 367.063 1210.4 367.331 1211.61 367.431C1217.59 367.933 1223.39 366.544 1229.18 365.332C1233.76 364.373 1238.28 363.116 1242.81 361.93C1244.86 361.396 1246.64 361.71 1248.4 362.942C1258.51 370.002 1264.34 379.628 1265.58 391.883C1266.93 405.193 1264.69 417.922 1258.92 430.031C1253.01 442.432 1244.76 453.143 1235.25 462.942C1226.98 471.474 1217.83 479.002 1208.23 485.982C1193.82 496.456 1178.47 505.393 1162.66 513.551C1152.13 518.982 1141.56 524.302 1131.11 529.901C1117.57 537.173 1104.91 545.731 1094.21 556.908C1090.99 560.289 1088.04 563.961 1085.12 567.613C1084.4 568.503 1084.25 569.842 1083.85 570.978C1083.65 571.115 1083.47 571.25 1083.28 571.387C1083.43 571.15 1083.57 570.955 1083.69 570.756Z" fill="#8B83F6"/>
<path d="M1040.09 276.213C1037.38 276.197 1034.66 276.151 1031.95 276.169C1030.23 276.179 1028.45 276.062 1026.8 276.425C1025.74 276.657 1024.66 277.499 1023.95 278.368C1023.29 279.172 1024.82 280.895 1026.59 281.309C1033.38 282.892 1040.23 283.25 1047.17 282.6C1056.51 281.725 1065.78 280.438 1074.92 278.356C1076.53 277.99 1077.84 278.148 1079.07 279.131C1085.68 284.423 1090.65 290.814 1090.73 299.644C1090.77 303.76 1089.96 307.988 1088.9 311.995C1086.93 319.465 1083.02 326.067 1078.67 332.398C1071.46 342.895 1062.33 351.474 1052.14 359.015C1041.61 366.815 1030.4 373.513 1018.87 379.739C1004.77 387.361 990.673 395 976.645 402.77C972.334 405.157 968.283 408.002 964.106 410.628C946.487 421.709 934.857 437.536 927.501 456.75C926.708 458.819 926.017 460.933 925.142 462.965C924.538 464.363 922.918 465.078 921.463 464.846C920.013 464.614 918.706 463.412 918.685 461.83C918.626 457.642 918.33 453.394 918.874 449.269C920.068 440.235 921.221 431.143 923.285 422.283C928.994 397.754 939.983 376.014 958.449 358.403C970.62 346.793 984.667 338.414 1000.65 333.205C1003.46 332.29 1006.26 331.341 1009.03 330.284C1010.4 329.763 1011.79 329.137 1012.92 328.223C1013.52 327.734 1013.75 326.529 1013.71 325.666C1013.7 325.245 1012.66 324.496 1012.12 324.53C1009.45 324.69 1006.68 324.717 1004.13 325.44C999.866 326.641 995.739 328.311 991.574 329.83C989.723 330.506 987.854 331.182 986.091 332.051C984.085 333.039 982.322 332.683 980.482 331.7C969.118 325.647 962.76 316.447 962.124 303.383C961.317 286.866 967.581 273.052 978.089 260.862C987.544 249.893 999.082 241.496 1011.54 234.266C1023.76 227.185 1036.82 221.999 1049.84 216.691C1056.69 213.901 1063.53 211.084 1070.35 208.213C1079.02 204.562 1087.21 200.03 1094.85 194.522C1100.91 190.155 1106.13 184.957 1110.62 179.015C1116 171.922 1120.82 164.488 1125.04 156.638C1129.13 149.029 1133.45 141.557 1138.75 134.691C1148.84 121.592 1161.57 111.531 1175.66 103.126C1186.69 96.5467 1198.02 90.5708 1210.41 86.8595C1211.59 86.509 1212.74 85.9823 1213.93 85.7877C1216.78 85.3229 1219.25 88.1696 1218.39 90.9745C1217.96 92.363 1217.3 93.7572 1216.44 94.922C1214.69 97.2971 1212.83 99.6189 1210.81 101.786C1195.73 118.019 1183.63 136.24 1174.67 156.486C1171.59 163.46 1169.15 170.723 1166.49 177.887C1165.29 181.121 1164.33 184.441 1163.21 187.703C1155.63 209.672 1142.89 228.151 1125.35 243.319C1117.5 250.095 1109.46 256.638 1100.71 262.247C1096.1 265.197 1091.22 267.425 1085.95 268.932C1070.94 273.207 1055.76 276.246 1040.09 276.213ZM574.003 424.922C573.175 424.76 572.695 424.675 572.218 424.569C570.784 424.249 569.85 422.215 570.729 421.055C571.45 420.102 572.309 419.131 573.324 418.559C574.59 417.846 576.047 417.279 577.481 417.081C583.337 416.281 587.215 412.584 590.696 408.313C597.105 400.462 602.621 391.975 607.583 383.172C613.266 373.087 618.573 362.787 623.999 352.558C631.403 338.601 639.615 325.166 649.145 312.535C665.415 290.967 685.209 273.47 708.919 260.468C715.183 257.033 721.479 253.627 727.936 250.575C734.464 247.488 740.383 243.589 745.807 238.869C746.919 237.904 748.061 236.956 749.283 236.143C750.583 235.277 752.572 235.522 753.231 236.793C753.745 237.781 753.936 239.115 753.768 240.218C753.636 241.087 752.843 241.948 752.154 242.626C748.661 246.081 745.223 249.51 741.081 252.333C731.833 258.633 724.133 266.663 717.857 275.918C714.121 281.421 710.707 287.136 707.632 293.034C701.947 303.96 696.553 315.04 691.172 326.123C682.962 343.037 673.233 358.992 661.514 373.713C651.763 385.959 640.355 396.409 627.392 405.172C620.62 409.751 613.403 413.526 605.659 416.105C597.49 418.827 589.196 421.183 580.924 423.582C578.567 424.261 576.096 424.526 574.003 424.922ZM-22.4304 774.31H1421.01V916.641H-22.4304V774.31Z" fill="#8B83F6"/>
</g>
<defs>
<clipPath id="clip0_1_509">
<rect width="1395" height="823" fill="white"/>
</clipPath>
</defs>
</svg>
