<svg width="115" height="95" viewBox="0 0 115 95" fill="none" xmlns="http://www.w3.org/2000/svg">
<path d="M55.9266 94.8644C57.425 94.8264 58.9314 94.8015 60.4368 94.7465C61.5184 94.7031 62.599 94.6402 63.6783 94.5578C64.7266 94.4829 65.7734 94.389 66.8183 94.2762C68.797 94.0605 70.7698 93.7959 72.7346 93.4654C76.5289 92.8253 80.2645 91.9496 83.9097 90.7033C85.8417 90.0423 87.7289 89.2694 89.5436 88.3267C90.8561 87.6447 92.1178 86.8808 93.2852 85.9671C94.3044 85.1683 95.24 84.2845 95.9847 83.2151C96.4788 82.5218 96.8526 81.7497 97.0904 80.9313C97.4414 79.6881 97.3638 78.4699 96.9144 77.2686C96.5505 76.295 95.9758 75.4542 95.2868 74.6883C94.6392 73.979 93.9186 73.3407 93.137 72.784C91.6784 71.7275 90.1004 70.8907 88.4538 70.1747C87.4752 69.7496 86.4797 69.3648 85.4698 69.0214C85.1586 68.9145 84.8483 68.8017 84.5421 68.6819C83.4583 68.2525 82.3297 67.9849 81.1962 67.7332C80.2327 67.5185 79.2712 67.2919 78.3017 67.1012C77.1483 66.8745 75.99 66.6668 74.8306 66.478C73.8094 66.3113 72.7823 66.1805 71.7572 66.0367C71.4469 65.9937 71.1347 65.9628 70.8235 65.9268C70.7611 65.9193 70.6984 65.9159 70.6356 65.9168C70.2866 65.9268 70.0817 66.1565 70.1205 66.501C70.1275 66.5619 70.1513 66.6218 70.1722 66.6808C70.1961 66.7507 70.1394 66.7746 70.1036 66.7736C69.8848 66.7656 69.6651 66.7526 69.4474 66.7337C69.4012 66.7284 69.3586 66.706 69.328 66.6708C69.2704 66.5909 69.3598 66.5629 69.3986 66.528C69.8451 66.1305 70.2945 65.7381 70.7409 65.3417C70.8155 65.2748 70.8792 65.2718 70.9309 65.3557C71.0403 65.5324 71.2013 65.5534 71.3823 65.5154C71.4588 65.4985 71.5335 65.4715 71.609 65.4525C72.1997 65.3047 72.7853 65.2927 73.3739 65.4785C73.7289 65.5913 74.0789 65.5514 74.4319 65.4216C74.8873 65.2548 75.3556 65.122 75.8189 64.9772C75.9462 64.9373 76.0596 64.9732 76.1809 65.0251C76.3956 65.118 76.6164 65.2019 76.8401 65.2648C77.2955 65.3916 77.743 65.2867 78.1884 65.1949C78.4499 65.14 78.7085 65.0751 78.968 65.0151C79.0833 64.9892 79.1688 65.0271 79.2672 65.1C79.5944 65.3427 79.9295 65.5763 80.2745 65.793C80.7935 66.1186 81.3633 66.1755 81.9529 66.0536C82.7086 65.8979 83.4364 65.6462 84.1384 65.3317C85.1287 64.8873 86.1559 64.5528 87.185 64.2173C87.5271 64.1054 87.8691 63.9876 88.2022 63.8508C89.4093 63.3595 90.6492 62.9621 91.8752 62.5267C93.0137 62.1223 94.1443 61.6989 95.2818 61.2945C96.287 60.938 97.3012 60.6075 98.3035 60.243C100.071 59.5989 101.866 59.0297 103.621 58.3467C103.781 58.2848 103.941 58.2199 104.101 58.155C104.22 58.106 104.337 58.0451 104.388 57.9233C104.454 57.7665 104.587 57.6836 104.711 57.5908C106.672 56.1289 108.311 54.3594 109.676 52.3313C110.796 50.6543 111.713 48.8491 112.407 46.954C113.089 45.1068 113.588 43.1962 113.894 41.2502C114.052 40.2716 114.153 39.283 114.229 38.2934C114.336 36.8904 114.325 35.4894 114.277 34.0874C114.237 33.1592 114.158 32.2331 114.041 31.3114C113.82 29.4495 113.463 27.6065 112.973 25.7973C112.069 22.4311 110.736 19.1965 109.005 16.1741C107.806 14.0649 106.407 12.0762 104.828 10.2356C102.175 7.15203 99.1079 4.57972 95.5045 2.67844C93.2973 1.50326 90.9269 0.667464 88.4726 0.198996C88.0878 0.126101 87.6991 0.0771712 87.3113 0.0182556C87.2497 0.00826995 87.184 -0.0077071 87.1244 0.00427574C86.675 0.0891541 86.2156 0.0342329 85.7661 0.108127C85.3336 0.178027 84.901 0.254917 84.4675 0.325816C82.5634 0.634374 80.6762 1.02781 78.787 1.41426C77.4198 1.69386 76.0586 2.00042 74.6934 2.289C73.1144 2.62352 71.5324 2.94806 69.9525 3.28358C68.6191 3.56717 67.2857 3.85276 65.9543 4.14934C64.44 4.48685 62.9296 4.84734 61.4142 5.17786C60.7172 5.33065 60.0808 5.62722 59.4385 5.91581C59.1394 6.05649 58.8661 6.2469 58.6301 6.479C58.1111 6.9693 57.6597 7.50952 57.3793 8.17657C57.3186 8.31936 57.2251 8.38427 57.0641 8.41123C56.5848 8.49112 56.1026 8.56901 55.6362 8.70082C54.2074 9.10324 52.9963 9.85117 52.0865 11.0495C51.9821 11.1873 51.8668 11.3261 51.8021 11.4828C51.6898 11.7524 51.4879 11.8992 51.2394 12.0201C50.6895 12.2897 50.1466 12.5713 49.5997 12.8479C49.4884 12.9048 49.374 12.9587 49.2646 13.0196C49.1831 13.0656 49.0817 13.1035 49.0319 13.1744C48.8639 13.4111 48.6084 13.49 48.3628 13.5908C47.6797 13.8714 47.0145 14.1929 46.3861 14.5824C45.7597 14.9708 45.1014 15.3113 44.5157 15.7637C44.3915 15.8596 44.2622 15.9514 44.1489 16.0593C42.7698 17.3754 41.4503 18.7424 40.3864 20.3391C39.355 21.8852 38.4938 23.5392 37.818 25.2721C37.0246 27.3134 36.4496 29.4336 36.1028 31.597C35.9224 32.7166 35.792 33.8438 35.712 34.9752C35.6077 36.5165 35.5947 38.0627 35.6733 39.6055C35.7339 40.9266 35.8891 42.2418 36.0889 43.5499C36.5908 46.807 37.4898 49.9897 38.7656 53.0263C38.9357 53.4327 39.1216 53.8332 39.2986 54.2366C39.3264 54.3005 39.3085 54.3604 39.2409 54.3924C39.1846 54.4195 39.1268 54.4435 39.0679 54.4643C38.6463 54.6061 38.2754 54.8417 37.9154 55.0963C37.7693 55.1894 37.6484 55.3174 37.5635 55.4688C37.4193 55.7494 37.1767 55.9182 36.9003 56.047C36.4759 56.2541 36.0191 56.3862 35.55 56.4374C34.7068 56.5173 33.8606 56.5752 33.0125 56.4933C32.9498 56.4874 32.8872 56.4844 32.8245 56.4814C31.7119 56.4195 30.6002 56.3396 29.4866 56.3016C28.7826 56.2777 28.0757 56.3146 27.3697 56.3266C27.2444 56.3286 27.1192 56.3386 26.9939 56.3426C26.1467 56.3645 25.3025 56.4344 24.4594 56.5223C23.7265 56.5992 22.9907 56.6601 22.2599 56.752C21.6066 56.8339 20.9553 56.9347 20.3071 57.0515C19.1805 57.2543 18.0559 57.4679 16.9333 57.6896C13.8662 58.2915 10.8855 59.2744 8.06 60.6154C6.7634 61.2306 5.56927 62.0154 4.40691 62.8502C3.98234 63.1558 3.62833 63.5393 3.31015 63.9497C2.60518 64.8584 1.93997 65.792 1.37122 66.7956C0.705022 67.9759 0.255579 69.2321 0.0795839 70.5712C-0.0645925 71.6716 -0.0208443 72.776 0.276457 73.8545C0.499185 74.6593 0.713019 75.4682 0.991428 76.253C1.59399 77.9516 2.49979 79.4704 3.77351 80.7556C5.05121 82.0457 6.46314 83.1691 7.96059 84.1887C10.1103 85.6516 12.3933 86.8728 14.7568 87.9433C18.6267 89.6968 22.6447 91.0189 26.7642 92.0374C29.976 92.8347 33.2326 93.4376 36.5165 93.8428C37.7464 93.9946 38.9774 94.1244 40.2123 94.2253C41.1977 94.3052 42.1841 94.3621 43.1705 94.42C44.0952 94.4739 45.0209 94.4999 45.9456 94.4959C46.9657 94.4937 47.9856 94.529 49.0031 94.6018C50.5065 94.7056 52.011 94.7735 53.5174 94.7965C54.3178 94.8085 55.1182 94.8404 55.9266 94.8644ZM38.7497 24.8527C38.7459 24.8834 38.7416 24.914 38.7368 24.9445C38.7338 24.9595 38.7279 24.9735 38.7239 24.9885C38.7139 24.9665 38.6921 24.9386 38.698 24.9246C38.71 24.9006 38.7398 24.8846 38.7616 24.8647C38.7706 24.7908 38.7517 24.7029 38.8551 24.6759C38.874 24.5861 38.879 24.4872 38.9158 24.4053C39.0769 24.0458 39.2409 23.6883 39.4179 23.3369C40.3208 21.5394 41.4175 19.8758 42.7777 18.3939C42.9477 18.2092 43.1058 18.0135 43.3405 17.8976C43.42 17.8577 43.4787 17.7728 43.5423 17.7029C43.8277 17.3894 44.1081 17.0708 44.3984 16.7603C44.657 16.4837 44.9562 16.254 45.2824 16.0593C45.4703 15.9464 45.6592 15.8336 45.8412 15.7098C47.976 14.2599 50.3216 13.3831 52.8909 13.1574C54.2374 13.0371 55.594 13.1022 56.9229 13.3512C59.0269 13.7466 60.9897 14.5125 62.8361 15.5949C65.1092 16.927 67.069 18.6366 68.81 20.6058C70.4427 22.4531 71.8158 24.4842 72.9812 26.6571C74.7879 30.0253 76.0238 33.6001 76.7825 37.3448C76.7984 37.4217 76.8083 37.5006 76.8083 37.5784C76.8093 37.6463 76.7725 37.7003 76.7009 37.7103C76.4215 37.7502 76.1411 37.7842 75.8617 37.8241C75.6917 37.8481 75.6539 37.892 75.6688 38.0777C75.7145 38.6589 75.7633 39.2401 75.82 39.8202C75.8478 40.1018 75.8945 40.3824 75.9353 40.662C76.0357 41.348 76.1252 42.0351 76.156 42.7291C76.2018 43.7526 76.1938 44.7761 76.157 45.8007C76.1461 46.1002 76.1411 46.3998 76.1182 46.6984C76.0745 47.2795 76.0119 47.8587 75.9721 48.4409C75.9164 49.2427 75.8408 50.0426 75.6787 50.8305C75.625 51.0911 75.5405 51.3457 75.463 51.6014C75.4222 51.7372 75.3605 51.866 75.3188 52.0008C75.0005 53.0232 74.6446 54.0335 74.2519 55.0294C73.8711 56.013 73.4833 56.9946 72.994 57.9313C72.3401 59.1714 71.5964 60.3615 70.7688 61.4922C68.9333 64.0236 66.5966 65.9218 63.7071 67.1181C63.388 67.2499 63.0608 67.3598 62.7347 67.4746C62.6472 67.5046 62.5537 67.5245 62.4613 67.5345C62.3658 67.5465 62.2216 67.4017 62.2186 67.2849C62.2166 67.191 62.2972 67.1621 62.3758 67.1381C62.465 67.1091 62.5535 67.0778 62.6412 67.0442C63.8662 66.5919 65.0386 66.0387 66.1224 65.2957C68.0165 63.9976 69.5656 62.3649 70.8443 60.4667C72.2632 58.3607 73.2765 56.063 73.9835 53.6264C74.4323 52.068 74.7558 50.4758 74.9509 48.8653C75.2128 46.7691 75.2771 44.6527 75.1428 42.5443C75.077 41.4591 74.9643 40.3773 74.8048 39.302C74.6058 37.9784 74.3353 36.6667 73.9944 35.3726C73.1045 31.9825 71.7731 28.782 69.9236 25.8043C68.3427 23.258 66.4475 20.9812 64.1258 19.077C62.5985 17.8237 60.9389 16.7872 59.1164 16.0193C57.3048 15.2537 55.3685 14.8292 53.404 14.7671C52.5561 14.7475 51.7083 14.81 50.8724 14.9539C49.2268 15.2185 47.6418 15.7779 46.1932 16.6055C45.7159 16.8781 45.2446 17.1597 44.7793 17.4523C44.3805 17.7039 43.9937 17.9735 43.6586 18.311C43.3166 18.6586 42.9676 19.0001 42.6255 19.3466C42.0861 19.8974 41.5801 20.4803 41.1102 21.0921C40.3464 22.0934 39.6707 23.1596 39.0907 24.2785C39.0191 24.4133 38.9844 24.5741 38.8442 24.6659C38.8372 24.7408 38.8452 24.8237 38.7497 24.8527ZM113.731 35.6183C113.698 36.4001 113.664 37.0292 113.646 37.6593C113.62 38.5271 113.524 39.3889 113.414 40.2476C113.287 41.2477 113.107 42.2403 112.875 43.2214C112.272 45.7807 111.372 48.2252 110.062 50.5109C108.522 53.1971 106.548 55.4938 104.029 57.3012C103.939 57.3661 103.843 57.43 103.78 57.5159C103.691 57.6397 103.569 57.7006 103.437 57.7505C102.953 57.9343 102.471 58.123 101.983 58.2958C100.756 58.7291 99.5265 59.1565 98.2976 59.5839C97.2008 59.9664 96.1031 60.3408 95.0093 60.7293C93.7983 61.1607 92.5911 61.605 91.381 62.0414C90.3927 62.3979 89.4024 62.7484 88.414 63.1039C87.8821 63.2956 87.357 63.5033 86.8211 63.68C85.8228 64.0106 84.8275 64.3421 83.866 64.7745C83.2793 65.0391 82.6718 65.2538 82.0444 65.4036C81.4578 65.5424 80.895 65.5144 80.3819 65.14C80.1552 64.9732 79.9036 64.8394 79.665 64.6876C79.6004 64.6467 79.5307 64.6037 79.482 64.5458C79.4377 64.4902 79.3797 64.447 79.3139 64.4204C79.2481 64.3938 79.1765 64.3847 79.1062 64.394C78.9351 64.408 78.7621 64.42 78.5941 64.4539C78.3485 64.5049 78.1089 64.5838 77.8633 64.6337C77.3592 64.7385 76.865 64.7335 76.4086 64.446C76.3688 64.421 76.3241 64.405 76.2833 64.383C76.2066 64.3423 76.1224 64.3176 76.0359 64.3106C75.9494 64.3036 75.8624 64.3143 75.7801 64.3421C75.2114 64.5179 74.6526 64.7315 74.055 64.7975C73.8203 64.9592 73.5807 64.8943 73.3331 64.8294C72.9682 64.7325 72.5963 64.6596 72.2165 64.7146C71.9689 64.7505 71.7234 64.8054 71.4768 64.8504C71.4307 64.8574 71.3842 64.8607 71.3376 64.8604C71.3297 64.8598 71.3221 64.8576 71.3152 64.8538C71.3084 64.85 71.3024 64.8448 71.2978 64.8384C71.2918 64.8304 71.2958 64.8084 71.3027 64.7984C71.3614 64.7265 71.4231 64.6557 71.4827 64.5838C71.8864 64.1004 72.306 63.6311 72.6898 63.1328C74.2887 61.0558 75.465 58.7491 76.339 56.2826C77.154 53.9635 77.6979 51.5571 77.9597 49.1119C78.1287 47.5741 78.2153 46.0343 78.2014 44.4885C78.1984 44.1271 78.1635 43.7646 78.1566 43.4031C78.1287 41.9821 77.9697 40.5752 77.7668 39.1702C77.4588 37.0495 76.9793 34.9576 76.333 32.9151C75.2005 29.3303 73.6066 25.9731 71.4519 22.8895C69.8918 20.6577 68.0831 18.6566 65.9623 16.947C64.0502 15.4052 61.9581 14.182 59.6364 13.3691C58.3269 12.9098 56.9836 12.5972 55.6015 12.4904C54.3009 12.3905 52.9983 12.3965 51.7077 12.6382C51.662 12.6462 51.6142 12.6432 51.5675 12.6422C51.5526 12.6422 51.5376 12.6322 51.5227 12.6272C51.5297 12.6142 51.5317 12.5972 51.5426 12.5902C51.6331 12.5283 51.7226 12.4654 51.8151 12.4075C52.0207 12.2884 52.187 12.1113 52.2933 11.8982C52.5369 11.389 52.9069 10.9835 53.3255 10.6231C54.0718 9.9657 54.9651 9.49912 55.9295 9.26301C56.1891 9.2011 56.4476 9.1292 56.7111 9.09725C57.0164 9.0593 57.3176 8.94147 57.6378 9.05631C57.7939 9.11123 57.953 8.96843 57.9699 8.80467C57.9786 8.75841 57.9779 8.71086 57.9679 8.66487C57.9102 8.48013 57.9888 8.32835 58.0683 8.17158C58.3199 7.67029 58.6958 7.26987 59.0985 6.8934C59.3057 6.69899 59.544 6.541 59.8034 6.42608C60.4199 6.15347 61.0513 5.91581 61.7076 5.75803C62.7586 5.50539 63.8145 5.27073 64.8695 5.03207C66.0468 4.76645 67.2231 4.49285 68.4033 4.2422C69.8133 3.94064 71.2292 3.66303 72.6401 3.36746C75.4938 2.76732 78.3435 2.1532 81.1992 1.56204C82.3347 1.32638 83.4792 1.13466 84.6197 0.926954C85.1755 0.826098 85.7343 0.746213 86.2871 0.632376C86.5665 0.574459 86.833 0.494573 87.1095 0.635372C87.1622 0.662333 87.2328 0.651349 87.2954 0.659337C88.7252 0.858789 90.1338 1.18971 91.5034 1.64792C93.6611 2.38145 95.715 3.39313 97.6134 4.65761C100.673 6.67672 103.282 9.18313 105.528 12.078C107.668 14.8452 109.423 17.8922 110.743 21.135C111.74 23.5532 112.492 26.0655 112.991 28.6343C113.254 29.9953 113.468 31.3643 113.559 32.7494C113.627 33.7549 113.681 34.7615 113.731 35.6183ZM50.0919 33.8208L50.1367 32.6485C50.1476 32.3649 50.1476 32.0793 50.1745 31.7977C50.2719 30.7472 50.4041 29.7007 50.6259 28.6682C50.9888 26.9806 51.5247 25.357 52.3301 23.8291C53.048 22.4661 53.9459 21.2409 55.1023 20.2163C56.1792 19.2637 57.3992 18.5767 58.7922 18.2102C59.2913 18.073 59.8031 17.9873 60.3195 17.9546C60.5273 17.9436 60.6904 17.8727 60.7162 17.635C60.7252 17.5511 60.765 17.5262 60.8375 17.5651C60.9479 17.623 61.0572 17.6849 61.1656 17.7489C63.2984 19.0071 65.1251 20.6297 66.7408 22.4981C68.3437 24.3514 69.6711 26.3925 70.7767 28.5793C71.7489 30.505 72.5402 32.5175 73.1403 34.5907C73.4614 35.6951 73.7259 36.8125 73.9486 37.9409C73.9864 38.1336 73.9735 38.1546 73.7896 38.2075C73.3521 38.3304 72.9106 38.4432 72.4771 38.578C71.6495 38.827 70.8648 39.2018 70.1503 39.6894C69.2713 40.2985 68.6181 41.0844 68.2661 42.103C68.0513 42.7271 67.8674 43.3622 67.6695 43.9923C67.6039 44.202 67.5502 44.4186 67.4647 44.6214C67.1306 45.4152 66.5847 45.9834 65.7445 46.249C65.2493 46.4058 64.7482 46.5346 64.2381 46.6125C63.1533 46.7783 62.0675 46.936 60.9787 47.0738C59.8273 47.2196 58.6759 47.3604 57.5344 47.5681C56.9965 47.665 56.4476 47.7309 55.9504 47.9905C55.8795 48.0205 55.8011 48.0282 55.7258 48.0125C55.1699 47.9176 54.6141 47.8168 54.0592 47.7159C53.8912 47.685 53.6924 47.693 53.5661 47.6011C53.4398 47.5082 53.3811 47.3155 53.3026 47.1617C51.736 44.066 50.7252 40.7171 50.3167 37.2689C50.1814 36.1405 50.1406 35.0091 50.0919 33.8208ZM36.6457 37.86C36.6385 36.7406 36.6916 35.6215 36.8048 34.5078C36.9251 33.3645 37.0981 32.2281 37.3398 31.1027C37.8737 28.6243 38.704 26.2547 39.929 24.0329C40.6916 22.6488 41.5885 21.3587 42.6683 20.2023C42.7747 20.0875 42.8801 19.9617 43.0113 19.8828C43.1655 19.7909 43.2758 19.6681 43.3912 19.5383C43.9241 18.9392 44.4412 18.32 45.1879 17.9665C45.2436 17.9396 45.2913 17.8956 45.3431 17.8597C47.0864 16.637 49.089 15.8384 51.1926 15.527C51.5486 15.4731 51.9095 15.4541 52.2695 15.4212C52.2953 15.4182 52.3231 15.4352 52.351 15.4432C52.3301 15.4651 52.3132 15.4931 52.2884 15.5101C52.2361 15.5444 52.182 15.5757 52.1263 15.6039C51.3865 15.9954 50.7133 16.4817 50.075 17.0219C49 17.9434 48.0072 18.9575 47.1079 20.0526C46.2793 21.0435 45.5695 22.1287 44.9931 23.2859C44.3129 24.66 43.8287 26.1059 43.4608 27.5928C43.1983 28.6492 42.9816 29.7147 42.9239 30.8032C42.8611 32.0472 42.8853 33.2942 42.9965 34.5348C43.0024 34.5967 43.0104 34.6606 43.0253 34.7215C43.076 34.9272 43.2222 35.0591 43.3743 35.0411C43.5523 35.0211 43.6587 34.8484 43.6368 34.6077C43.6159 34.388 43.5752 34.1703 43.5692 33.9506C43.5483 33.2417 43.5334 32.5327 43.5284 31.8237C43.5224 31.0498 43.5602 30.2789 43.6905 29.515C43.8844 28.3806 44.1578 27.2652 44.5059 26.1688C45.0139 24.5681 45.697 23.0513 46.6615 21.6722C47.7957 20.0607 49.1378 18.6074 50.6527 17.3504C51.3733 16.7394 52.1772 16.235 53.04 15.8526C53.2837 15.7467 53.5253 15.6299 53.756 15.4971C53.8644 15.4339 53.9906 15.4086 54.1149 15.4252C54.4112 15.4551 54.7095 15.4771 55.0039 15.522C56.2 15.7048 57.3723 15.9874 58.4969 16.4447C59.0199 16.6574 59.532 16.8981 60.046 17.1307C60.1107 17.1607 60.2141 17.2316 60.2081 17.2675C60.1873 17.3864 60.064 17.3534 59.9775 17.3704C59.9466 17.3764 59.9148 17.3734 59.8839 17.3784C59.5747 17.4273 59.2615 17.4623 58.9563 17.5302C57.6507 17.8246 56.4232 18.3971 55.3568 19.2088C54.0931 20.1554 53.0918 21.3377 52.2705 22.6798C51.4611 24.0029 50.8694 25.4239 50.43 26.9107C49.8602 28.841 49.5838 30.8181 49.5032 32.8233C49.4416 34.3381 49.5142 35.8489 49.6971 37.3538C49.8592 38.6829 50.1058 39.998 50.4419 41.2951C51.1171 43.9014 52.0935 46.3848 53.4478 48.7125C53.7719 49.2707 54.1149 49.8169 54.448 50.3701C54.5166 50.482 54.5007 50.5419 54.3953 50.6018C54.286 50.6637 54.1756 50.7226 54.0652 50.7825C53.917 50.8624 53.8892 50.8594 53.7997 50.7196C53.2746 49.8966 52.8211 49.0296 52.4445 48.1283C52.2317 47.6191 52.3003 47.637 51.7763 47.7369C51.6838 47.7549 51.5883 47.7549 51.4969 47.7768C49.8135 48.1693 48.3091 48.9062 47.0433 50.1035C47.0095 50.1364 46.9757 50.1784 46.935 50.1924C46.9012 50.2034 46.8305 50.1944 46.8176 50.1704C46.7576 50.0606 46.7057 49.9464 46.6625 49.8289C46.2638 48.7504 45.8502 47.678 45.4743 46.5935C44.9866 45.1959 44.5845 43.7696 44.2702 42.3226C44.0922 41.4908 43.9689 40.65 43.8426 39.8092C43.8187 39.6543 43.7858 39.501 43.7442 39.3499C43.7213 39.264 43.6447 39.2341 43.5602 39.2301C43.5128 39.2289 43.4665 39.2452 43.4302 39.2759C43.3939 39.3066 43.3701 39.3497 43.3633 39.3968C43.3534 39.4587 43.3484 39.5217 43.3465 39.5846C43.3246 40.2636 43.3723 40.9396 43.4956 41.6087C43.7402 42.9258 44.0733 44.2199 44.468 45.5001C45.0779 47.4707 45.7891 49.4082 46.5989 51.3048C46.931 52.0867 47.2701 52.8665 47.6081 53.6464C47.6887 53.8322 47.7732 54.0179 47.8567 54.2036L47.4599 54.664C47.449 54.6759 47.4361 54.6959 47.4261 54.6939C47.3863 54.6909 47.3297 54.6919 47.3138 54.668C47.2519 54.5771 47.1965 54.482 47.1477 54.3834C46.794 53.6979 46.4763 52.9943 46.1961 52.2754C46.1515 52.158 46.1038 52.0418 46.053 51.9269C46.043 51.9039 46.0042 51.88 45.9784 51.88C45.9585 51.88 45.9297 51.9119 45.9178 51.9359C45.8502 52.0787 45.7954 52.2275 45.7199 52.3653C45.5608 52.6538 45.4067 52.9464 45.2237 53.22C44.9583 53.6155 44.5725 53.8541 44.1151 53.967C43.9017 54.0187 43.6851 54.0561 43.4667 54.0788C42.5758 54.1727 41.6809 54.1717 40.787 54.1916C40.618 54.1946 40.5256 54.1257 40.459 53.9839C40.2581 53.5576 40.0473 53.1352 39.8504 52.7058C38.8287 50.4708 38.048 48.1325 37.5217 45.7308C37.2831 44.6383 37.0673 43.5419 36.948 42.4285C36.8605 41.6147 36.762 40.8008 36.7064 39.984C36.6576 39.279 36.6636 38.569 36.6457 37.86ZM62.4792 90.5446C60.9648 90.5326 59.6185 90.5136 58.2752 90.3399C57.2482 90.2152 56.2373 89.9816 55.2594 89.6429C55.1558 89.6066 55.0556 89.5612 54.9601 89.507C54.8666 89.4531 54.8269 89.3283 54.8537 89.2165C54.8664 89.1626 54.8961 89.1143 54.9384 89.0788C54.9807 89.0433 55.0333 89.0226 55.0883 89.0197C55.1659 89.0177 55.2445 89.0287 55.3201 89.0437C56.4585 89.2664 57.5961 89.4971 58.7534 89.5959C59.4097 89.6528 60.065 89.7237 60.7232 89.7417C62.0397 89.7777 63.3572 89.7667 64.6746 89.6918C65.7392 89.6336 66.8023 89.5524 67.8634 89.4481C69.0168 89.3333 70.1662 89.1675 71.3147 89.0108C72.9444 88.7829 74.5658 88.4985 76.1759 88.158C79.4137 87.4771 82.5934 86.5423 85.6856 85.362C87.3739 84.7219 89.0265 84.0029 90.6055 83.1192C90.8242 82.9964 91.043 82.8726 91.2598 82.7457C91.3797 82.6692 91.5194 82.6297 91.6615 82.6319C91.8892 82.6419 92.0294 82.8266 91.9856 83.0543C91.9644 83.1641 91.9012 83.2612 91.8096 83.3249C91.7062 83.396 91.6001 83.463 91.4914 83.5256C90.544 84.0826 89.5656 84.5847 88.5611 85.0295C86.5407 85.9362 84.4635 86.6891 82.3546 87.3571C79.9489 88.1229 77.4977 88.7363 75.0155 89.1935C74.0142 89.3762 73.011 89.557 72.0057 89.7178C71.2471 89.8386 70.4854 89.9344 69.7228 90.0273C69.0228 90.1122 68.3208 90.1851 67.6188 90.249C66.6513 90.3369 65.6829 90.4307 64.7134 90.4866C63.915 90.5336 63.1135 90.5296 62.4792 90.5446ZM24.5091 89.0847C24.3947 89.0547 24.3042 89.0307 24.2127 89.0088C23.0417 88.7159 21.8892 88.3528 20.7615 87.9213C17.2187 86.5842 13.8082 84.9596 10.4792 83.1572C9.33277 82.536 8.20617 81.882 7.13529 81.135C6.98117 81.0282 6.83005 80.9144 6.67891 80.8015C6.62822 80.7646 6.58093 80.7232 6.53769 80.6777C6.41439 80.5419 6.39356 80.3362 6.48404 80.1974C6.57452 80.0596 6.7694 80.0167 6.94539 80.1075C7.04184 80.1574 7.13333 80.2203 7.22183 80.2853C7.89399 80.7776 8.59693 81.2239 9.31582 81.6433C12.0303 83.227 14.8452 84.6111 17.7158 85.8842C19.4221 86.6412 21.1721 87.2912 22.9201 87.9423C23.4342 88.134 23.9503 88.3207 24.4623 88.5185C24.5608 88.5564 24.6512 88.6233 24.7318 88.6932C24.8024 88.7541 24.8004 88.8859 24.7288 88.9498C24.6622 89.0088 24.5757 89.0447 24.5091 89.0847ZM28.8453 58.0262C28.4615 58.0361 27.9285 58.0541 27.3956 58.0631C27.2564 58.0661 27.1151 58.0531 26.9779 58.0321C26.8944 58.0192 26.8626 57.8484 26.9312 57.7945C26.9782 57.7542 27.0317 57.7221 27.0893 57.6996C27.3289 57.6177 27.5775 57.5958 27.8301 57.5898C29.1785 57.5601 30.5276 57.6001 31.872 57.7096C32.2936 57.7456 32.7132 57.7995 33.1328 57.8544C33.5832 57.9143 34.0307 58.0042 34.4831 58.0401C34.8878 58.0701 35.3024 58.0861 35.7031 58.0351C36.4981 57.9363 37.2701 57.7001 37.9851 57.3371C38.3888 57.1304 38.7646 56.8678 39.1524 56.6321C39.4477 56.4524 39.7411 56.2707 40.0394 56.0989C40.1487 56.036 40.2183 56.0759 40.2969 56.2187C40.3794 56.3665 40.3704 56.4145 40.2481 56.4904C39.916 56.6981 39.574 56.8918 39.2518 57.1155C38.3856 57.7166 37.4108 58.1419 36.3822 58.3677C35.9676 58.4605 35.552 58.5174 35.1264 58.5234C34.6716 58.522 34.218 58.4786 33.7712 58.3936C32.7659 58.2199 31.7507 58.15 30.7355 58.0791C30.1558 58.0381 29.5751 58.0441 28.8453 58.0262ZM62.2614 65.1629C61.5694 65.1839 60.8067 65.085 60.051 64.9432C59.5897 64.8564 59.1382 64.7206 58.6838 64.5997C58.5605 64.5668 58.5278 64.5059 58.5506 64.393C58.5715 64.2852 58.6003 64.1783 58.6271 64.0715C58.6848 63.8438 58.6987 63.8328 58.9046 63.8927C59.8561 64.1694 60.8226 64.3481 61.811 64.438C62.9383 64.5379 64.0743 64.4375 65.1668 64.1414C65.9762 63.9267 66.7269 63.5722 67.4378 63.1308C67.5572 63.0569 67.6854 62.998 67.8127 62.9381C67.8325 62.9281 67.8793 62.9441 67.8942 62.9631C67.9062 62.9791 67.9002 63.029 67.8843 63.044C67.5223 63.3705 67.1694 63.707 66.7915 64.0146C66.4266 64.3121 66.0368 64.5788 65.657 64.8574C65.5645 64.9253 65.4731 64.9802 65.3895 64.8304C65.3687 64.7935 65.2812 64.7815 65.2235 64.7805C65.1628 64.7805 65.1012 64.8054 65.0405 64.8204C64.1556 65.0571 63.2567 65.1709 62.2614 65.1629ZM62.5836 69.0603C62.5398 69.0314 62.4622 69.0064 62.4573 68.9705C62.4503 68.9176 62.4891 68.8536 62.5189 68.8017C62.5318 68.7797 62.5716 68.7698 62.6005 68.7588C62.6591 68.7378 62.7188 68.7168 62.7795 68.6989C64.255 68.2795 65.5993 67.5765 66.889 66.7586C68.2224 65.9128 69.4016 64.8813 70.4735 63.723C70.7817 63.3905 70.7221 63.3715 71.2391 63.5572C71.2536 63.5626 71.2679 63.5686 71.2819 63.5752C71.3385 63.6012 71.3624 63.681 71.3206 63.732C71.2222 63.8548 71.1238 63.9776 71.0174 64.0925C70.5274 64.6239 70.0076 65.1267 69.4603 65.5983C67.7331 67.0812 65.7942 68.1736 63.6037 68.8007C63.2726 68.8946 62.9365 68.9705 62.5836 69.0603ZM58.315 84.7469L58.313 84.7728C57.6249 84.7369 56.9358 84.7009 56.2477 84.663C55.6064 84.628 54.9641 84.5971 54.3237 84.5492C54.1211 84.5299 53.9209 84.4904 53.7261 84.4313C53.569 84.3884 53.4637 84.2426 53.4816 84.1228C53.4885 84.0593 53.5152 83.9997 53.5579 83.9524C53.6006 83.905 53.657 83.8724 53.7192 83.8591C53.8713 83.8252 54.0274 83.7912 54.1815 83.7922C54.5882 83.7932 54.9959 83.8062 55.4036 83.8262C56.3114 83.8711 57.2182 83.934 58.126 83.97C58.7376 83.9939 59.349 83.982 59.9615 83.988C60.054 83.989 60.1524 83.988 60.2399 84.0139C60.3005 84.0315 60.3554 84.0648 60.399 84.1105C60.4426 84.1562 60.4735 84.2126 60.4885 84.2741C60.5034 84.3357 60.5019 84.4 60.4841 84.4608C60.4663 84.5215 60.4328 84.5765 60.3871 84.62C60.3203 84.6847 60.2358 84.7278 60.1445 84.7439C59.9277 84.7748 59.708 84.7938 59.4892 84.7918C59.0975 84.7868 58.7067 84.7628 58.315 84.7469ZM53.4507 56.2627C53.4955 56.3006 53.565 56.3386 53.6048 56.3965C53.6275 56.4298 53.6363 56.4706 53.6295 56.5103C53.6226 56.5501 53.6005 56.5855 53.568 56.6092C53.4561 56.6933 53.3342 56.763 53.2051 56.8169C53.0013 56.8968 52.7885 56.9527 52.5797 57.0206C51.4952 57.3647 50.5426 58.0359 49.8513 58.9428C49.5639 59.3163 49.2945 59.7047 49.0399 60.1002C48.7088 60.6154 48.4055 61.1487 48.0784 61.6679C47.5345 62.5297 46.8097 63.2237 46.0142 63.8458C45.9038 63.9327 45.7765 63.9976 45.6523 64.0635C45.5976 64.0937 45.5356 64.1078 45.4733 64.1044C45.4186 64.0985 45.348 64.0645 45.3222 64.0206C45.2983 63.9776 45.3003 63.8858 45.3311 63.8508C45.4236 63.747 45.53 63.6521 45.6413 63.5682C46.6148 62.8293 47.439 61.9555 48.0426 60.8821C48.142 60.7033 48.2465 60.5276 48.3568 60.3548C48.6432 59.9055 48.9206 59.4461 49.2278 59.0097C50.0382 57.8574 51.0952 57.0276 52.4425 56.5912C52.7249 56.4993 53.0043 56.3965 53.2857 56.2996C53.3294 56.2846 53.3762 56.2796 53.4507 56.2627ZM12.6826 60.3388H12.78C12.8646 60.3488 12.9282 60.3888 12.9571 60.4706C12.9711 60.5154 12.9693 60.5637 12.9521 60.6073C12.9349 60.6509 12.9033 60.6873 12.8626 60.7103C12.8069 60.7403 12.7502 60.7702 12.6896 60.7842C11.7002 61.0308 10.7457 61.3863 9.80109 61.7618C7.60364 62.6345 5.62891 63.8488 4.05589 65.6542C4.01644 65.7029 3.97247 65.7477 3.92462 65.788C3.85999 65.841 3.78148 65.8589 3.7079 65.811C3.69078 65.801 3.67588 65.7876 3.66415 65.7716C3.65242 65.7555 3.64408 65.7373 3.63969 65.7179C3.63531 65.6985 3.63497 65.6784 3.63866 65.6588C3.64235 65.6393 3.65003 65.6207 3.66117 65.6043C3.79939 65.3776 3.92863 65.14 4.09965 64.9382C4.31243 64.6886 4.54807 64.4529 4.79963 64.2422C6.2046 63.0699 7.72493 62.0803 9.43914 61.4213C10.2286 61.1187 11.0291 60.8461 11.8255 60.5655C12.0324 60.4936 12.2461 60.4427 12.4579 60.3858C12.5474 60.3608 12.6399 60.3478 12.6826 60.3388ZM38.8303 67.1551C38.8472 67.1201 38.8621 67.0303 38.9158 66.9893C39.0769 66.8675 39.2459 66.7556 39.4239 66.6578C40.2979 66.1745 41.2117 65.7591 42.0022 65.133C42.0649 65.0877 42.1369 65.0569 42.2129 65.0431C42.2925 65.0261 42.376 65.0591 42.4078 65.137C42.4298 65.1942 42.4294 65.2577 42.4068 65.3147C42.3719 65.3842 42.3212 65.4444 42.2587 65.4905C42.02 65.6682 41.7893 65.8609 41.5328 66.0057C40.7841 66.4261 40.0244 66.8275 39.2667 67.234C39.1862 67.2769 39.0927 67.2989 39.0032 67.3238C38.9376 67.3418 38.8392 67.2639 38.8303 67.1551ZM43.7442 55.8573C43.4469 55.8852 43.0432 55.9182 42.6415 55.9621C42.3621 55.9931 42.0846 56.037 41.8072 56.0749C41.6859 56.0919 41.5925 56.055 41.5348 55.9421C41.5069 55.8872 41.4742 55.8323 41.4533 55.7744C41.4463 55.7544 41.4652 55.7105 41.4831 55.7015C41.5378 55.6717 41.5969 55.6508 41.6581 55.6396C42.1523 55.5707 42.6455 55.4908 43.1416 55.4458C43.4996 55.4194 43.8587 55.4127 44.2175 55.4259C44.3706 55.4279 44.5237 55.4758 44.6749 55.5108C44.7176 55.5207 44.7663 55.5477 44.7902 55.5826C44.822 55.6316 44.8548 55.6985 44.8449 55.7504C44.837 55.7793 44.823 55.8062 44.8038 55.8291C44.7845 55.8521 44.7605 55.8705 44.7335 55.8832C44.6597 55.9051 44.5824 55.9123 44.5059 55.9042C44.2881 55.8942 44.0703 55.8772 43.7442 55.8573ZM63.6654 49.8509C63.6773 49.8249 63.6823 49.787 63.7012 49.778C63.7211 49.769 63.7529 49.7899 63.7797 49.7979L63.734 49.8958L63.6654 49.8509Z" fill="black"/>
<path d="M81.0743 37.6345C80.7263 37.6065 80.4449 37.5796 80.1635 37.5616C80.0203 37.5526 79.9626 37.6135 79.9766 37.7623C80.0183 38.2176 80.068 38.671 80.1147 39.1253C80.1615 39.5647 80.2191 40.0021 80.2549 40.4415C80.3693 41.8245 80.3972 43.2105 80.3832 44.5985C80.3728 45.4653 80.329 46.3314 80.252 47.1948C80.1334 48.5446 79.9419 49.887 79.6783 51.216C79.1811 53.7404 78.4552 56.1989 77.5922 58.6194C77.0552 60.1223 76.3791 61.5592 75.4991 62.8933C75.3828 63.069 75.3798 63.2038 75.4971 63.3606C75.5071 63.3736 75.514 63.3876 75.522 63.4006C75.6025 63.5284 75.6483 63.5474 75.7945 63.5194C76.1484 63.4515 76.5014 63.3796 76.8564 63.3177C77.2571 63.2478 77.6399 63.3257 78.0008 63.4974C78.2425 63.6113 78.4771 63.7401 78.7038 63.8799C79.1761 64.1715 79.6733 64.2094 80.1993 64.0736C80.9599 63.8759 81.6898 63.5863 82.4206 63.3037C83.9717 62.7016 85.5159 62.0854 87.0631 61.4733C88.5078 60.9011 89.9874 60.4288 91.455 59.9195C93.0559 59.3643 94.6557 58.8101 96.2754 58.3119C97.2648 58.0073 98.2541 57.7017 99.2365 57.3742C99.8013 57.1865 100.353 56.9578 100.908 56.7401C101.17 56.6363 101.42 56.4965 101.687 56.4066C102.37 56.1769 102.942 55.7675 103.496 55.3241C104.262 54.712 104.92 53.996 105.539 53.2371C105.837 52.8716 106.148 52.5162 106.463 52.1657C106.665 51.942 106.841 51.7043 106.976 51.4347C107.95 49.4895 108.837 47.5073 109.525 45.4413C110.013 43.9764 110.361 42.4735 110.622 40.9507C110.95 39.0315 111.034 37.1002 111.001 35.158C110.98 34.055 110.902 32.9538 110.769 31.8588C110.529 29.8565 110.127 27.8772 109.569 25.9402C108.351 21.7123 106.517 17.7779 104.005 14.1671C102.544 12.0541 100.845 10.1177 98.9412 8.39637C97.2949 6.90801 95.4701 5.63164 93.5092 4.59681C92.7864 4.21536 92.0705 3.82791 91.3049 3.53933C90.7023 3.31365 90.0967 3.09596 89.4644 2.97014C89.2794 2.93419 89.0865 2.9302 88.9095 2.87328C88.4392 2.72349 87.9788 2.77342 87.5274 2.9282C87.2977 3.00809 87.071 3.03006 86.8344 3.00509C86.7409 2.99511 86.6464 2.9951 86.552 2.98712C84.1089 2.80538 81.9741 3.54532 80.1376 5.164C79.0011 6.16556 78.1391 7.37782 77.4411 8.71591C76.7172 10.1059 76.2051 11.5758 75.8491 13.0996C75.6781 13.8346 75.5518 14.5815 75.4037 15.3224C75.3575 15.524 75.381 15.7353 75.4703 15.9216C75.5607 16.1033 75.6522 16.2851 75.7467 16.4658C75.7527 16.4758 75.8133 16.4748 75.8173 16.4658C75.8341 16.4221 75.8455 16.3765 75.8511 16.33C75.9913 15.3155 76.1613 14.3069 76.4099 13.3123C76.7977 11.7625 77.3307 10.2697 78.1043 8.86869C78.6641 7.85614 79.3322 6.92547 80.1655 6.12162C81.2036 5.12106 82.4027 4.39809 83.8027 4.03262C84.4389 3.85759 85.0959 3.76992 85.7556 3.77199C85.7854 3.77199 85.8152 3.78597 85.846 3.79296C85.8301 3.83091 85.8242 3.87784 85.7973 3.9038C85.7307 3.97071 85.6511 4.02363 85.5835 4.08954C85.4135 4.2523 85.2425 4.41507 85.0804 4.58583C84.8408 4.83747 84.6708 5.13304 84.4997 5.43661C83.8654 6.56299 83.5859 7.77326 83.567 9.05642C83.5511 10.1209 83.7271 11.1584 84.0035 12.1819C84.3376 13.4162 84.805 14.6015 85.3111 15.7728C86.1601 17.7214 87.0889 19.634 88.0952 21.5056C89.517 24.1718 90.9608 26.828 92.3936 29.4881C92.6472 29.9605 92.8749 30.4458 93.0101 30.967C93.0538 31.1328 93.0738 31.3065 93.0887 31.4783C93.1003 31.6045 93.0823 31.7318 93.036 31.8497C92.9897 31.9677 92.9165 32.073 92.8222 32.1573C92.7088 32.2662 92.5875 32.367 92.4602 32.4589C92.2176 32.6326 91.969 32.7974 91.7225 32.9652C90.0251 34.1235 88.6987 35.6064 87.7969 37.4647C87.7422 37.5786 87.6855 37.6904 87.6298 37.8042C87.413 38.2496 87.5115 38.2406 86.9179 38.1637C86.202 38.0728 85.4871 37.98 84.7692 37.9081C84.0046 37.8312 83.2379 37.7783 82.4723 37.7144C82.2734 37.6984 82.2436 37.6754 82.2068 37.4587C82.1604 37.1792 82.1189 36.8989 82.0825 36.6179C81.8724 35.1046 81.573 33.605 81.1857 32.1274C80.3832 29.0198 79.2547 26.0361 77.7443 23.2042C75.9297 19.799 73.6596 16.7414 70.8298 14.1172C68.1252 11.6108 65.0757 9.65357 61.6125 8.3714C61.0397 8.15971 60.4531 7.98396 59.8714 7.79723C59.7821 7.76987 59.6893 7.7564 59.596 7.75728C59.4886 7.75728 59.3881 7.85315 59.3613 7.957C59.3305 8.07383 59.3474 8.19066 59.4438 8.25657C59.5452 8.32647 59.6656 8.3694 59.7829 8.40935C60.3029 8.58609 60.8289 8.74387 61.344 8.9326C63.8686 9.85927 66.1833 11.1694 68.3171 12.807C71.152 14.9839 73.5075 17.6042 75.4703 20.5879C77.615 23.8472 79.1871 27.3712 80.2699 31.1188C80.7663 32.8271 81.1487 34.5669 81.4143 36.3264C81.468 36.6848 81.5277 37.0423 81.5784 37.4008C81.6042 37.5855 81.5585 37.6335 81.3855 37.6345H81.0743ZM110.383 34.6218H110.405C110.405 35.0312 110.406 35.4406 110.404 35.851C110.403 35.897 110.383 35.9419 110.372 35.9868C110.315 35.9669 110.249 35.9609 110.203 35.9269C110.028 35.7921 109.865 35.6443 109.689 35.5125C109.607 35.4506 109.517 35.3288 109.41 35.4027C109.359 35.4396 109.363 35.5774 109.365 35.6683C109.391 37.0283 109.23 38.3724 109.02 39.7125C108.904 40.4435 108.79 41.1734 108.79 41.9193C108.79 42.3897 108.746 42.864 108.698 43.3333C108.573 44.5566 108.351 45.7638 108.098 46.9671C107.983 47.5143 107.699 47.9477 107.377 48.3751C107.352 48.408 107.286 48.3861 107.268 48.3391C107.251 48.2962 107.233 48.2523 107.221 48.2073C107.089 47.723 106.957 47.2367 106.824 46.7524C106.806 46.6929 106.783 46.6351 106.755 46.5797C106.678 46.4259 106.594 46.2751 106.521 46.1193C106.121 45.2705 105.618 44.4957 104.914 43.8675C103.792 42.868 102.488 42.5295 101.023 42.8051C100.686 42.869 100.365 43.0218 100.028 43.0757C99.7645 43.1176 99.5567 43.2315 99.3518 43.3792C99.1739 43.5081 98.9919 43.6319 98.812 43.7587C97.8492 44.444 97.0207 45.3018 96.3679 46.2891C95.6868 47.3026 95.1887 48.404 94.79 49.5544C94.4171 50.6249 94.1208 51.7183 93.8344 52.8157C93.5928 53.7444 93.3452 54.6731 93.0906 55.5977C92.9695 56.0388 92.8056 56.4669 92.6014 56.8759C92.313 57.4541 91.8666 57.8505 91.2601 58.0602C90.9488 58.1671 90.6337 58.2639 90.3165 58.3528C88.4124 58.882 86.4834 59.3084 84.5613 59.7648C84.272 59.8337 83.9797 59.8906 83.6883 59.9495C83.6157 59.9645 83.5621 59.9026 83.5889 59.8417C83.6018 59.8137 83.6148 59.7847 83.6297 59.7578C84.0414 59.0288 84.3416 58.2499 84.628 57.4651C85.2594 55.7325 85.7556 53.9601 86.209 52.1737C86.5391 50.8755 86.7837 49.5614 86.9189 48.2273C86.9607 47.8209 86.9298 47.4075 87.0412 47.007C87.0591 46.9136 87.0581 46.8175 87.0382 46.7245C86.9736 46.2741 86.9358 45.8158 86.8274 45.3764C86.6554 44.6754 86.6067 43.9804 86.7518 43.2724C86.7717 43.1805 86.7717 43.0847 86.7806 42.9908C86.8125 42.6613 86.8383 42.3317 86.8791 42.0022C86.896 41.8644 86.9119 41.7066 86.9865 41.5958C87.1516 41.3502 87.1963 41.0755 87.243 40.7969C87.3278 40.2518 87.4801 39.7194 87.6964 39.2122C87.9052 38.7359 88.1101 38.2586 88.3318 37.7893C89.0666 36.2365 90.1335 34.9523 91.4848 33.9048C91.8199 33.6452 92.1818 33.4205 92.5249 33.1709C92.7665 32.9961 93.0121 32.8234 93.2289 32.6197C93.6365 32.2372 93.7847 31.7579 93.6952 31.2017C93.6433 30.8909 93.5594 30.5863 93.4446 30.293C93.194 29.6439 92.8609 29.0378 92.5308 28.4287C91.4719 26.4785 90.402 24.5342 89.356 22.5761C88.1996 20.4092 87.081 18.2233 86.0807 15.9785C85.5798 14.8749 85.1416 13.7437 84.7682 12.5904C84.3555 11.2872 84.1279 9.96112 84.2124 8.58909C84.2496 7.92744 84.3853 7.27512 84.615 6.65386C85.0744 5.42163 85.8609 4.47499 87.0571 3.9038C87.7819 3.5573 88.5347 3.39154 89.3401 3.57228C89.8472 3.68611 90.3384 3.84189 90.8256 4.01864C91.5505 4.28126 92.2355 4.62777 92.9275 4.96628C94.2579 5.61735 95.5247 6.36827 96.6841 7.29295C97.053 7.58752 97.4139 7.89209 97.7749 8.19665C99.6389 9.77103 101.317 11.5552 102.775 13.514C105.195 16.7534 107.04 20.3023 108.354 24.1298C108.992 25.9755 109.484 27.8686 109.827 29.7917C109.986 30.6904 110.109 31.5961 110.216 32.5028C110.297 33.2058 110.329 33.9148 110.383 34.6218Z" fill="black"/>
<path d="M79.3232 43.5959C79.2785 42.7571 79.2358 41.7496 79.1652 40.744C79.1053 39.9431 79.0301 39.1434 78.9395 38.3454C78.9007 37.9869 78.8251 37.6325 78.7595 37.277C78.6134 36.4881 78.4741 35.6972 78.311 34.9114C77.7745 32.3508 76.9823 29.8511 75.9465 27.45C74.8526 24.8831 73.472 22.4493 71.8311 20.1954C69.7231 17.3136 67.2453 14.8091 64.311 12.7721C62.7229 11.6688 61.0211 10.7405 59.235 10.003C59.1049 9.95107 58.9685 9.91649 58.8293 9.90018C58.6951 9.8842 58.5797 9.98007 58.5459 10.1019C58.5301 10.1554 58.5318 10.2126 58.5508 10.2651C58.5698 10.3176 58.605 10.3626 58.6513 10.3935C58.7508 10.4674 58.8642 10.5273 58.9795 10.5732C60.3407 11.1134 61.6293 11.7965 62.8702 12.5704C64.2685 13.4478 65.5883 14.4454 66.8148 15.5521C69.5312 17.9916 71.7466 20.8345 73.5423 24.012C75.4226 27.3372 76.7549 30.8771 77.608 34.6008C77.791 35.3977 77.9272 36.2055 78.0844 37.0093C78.0963 37.0713 78.1012 37.1342 78.1082 37.1971C78.141 37.5096 78.131 37.5236 77.8307 37.5346C77.5961 37.5446 77.3605 37.5446 77.1258 37.5566C76.9448 37.5665 76.9041 37.6205 76.931 37.7932C77.0215 38.3854 77.1239 38.9745 77.1984 39.5687C77.2959 40.3336 77.3794 41.1005 77.4559 41.8684C77.5892 43.2045 77.5663 44.5455 77.5275 45.8846C77.4947 47.033 77.4251 48.1813 77.2849 49.3247C76.8132 53.1969 75.6304 56.9477 73.7968 60.3869C73.2509 61.4154 72.6663 62.4239 72.0995 63.4405C72.0687 63.4954 72.0319 63.5473 72.0001 63.6003C71.9135 63.7471 71.8273 63.8942 71.7415 64.0416C71.8996 64.1754 72.0925 64.1125 72.2695 64.1265C72.4097 64.1365 72.5529 64.1075 72.6921 64.1225C72.9715 64.1525 73.1624 64.0226 73.3464 63.8289C74.0689 63.06 74.6892 62.2004 75.1918 61.2716C75.764 60.2206 76.2493 59.1241 76.6426 57.9933C77.2103 56.3736 77.7364 54.7419 78.1401 53.0713C78.5189 51.5096 78.8261 49.9338 79.02 48.3381C79.1403 47.3535 79.2357 46.3649 79.2516 45.3704C79.2616 44.8361 79.2944 44.3019 79.3232 43.5959ZM75.0745 17.9576C75.1034 18.1434 75.1252 18.3301 75.164 18.5128C75.1831 18.5883 75.218 18.6588 75.2664 18.7195C75.3539 18.8384 75.5598 18.8304 75.6264 18.6996C75.6811 18.5907 75.7378 18.4649 75.7358 18.3481C75.7298 18.0984 75.692 17.8488 75.6532 17.6021C75.6353 17.4873 75.5548 17.4094 75.4374 17.3785C75.2465 17.3275 75.0785 17.4364 75.0706 17.6281C75.0646 17.736 75.0805 17.8458 75.0864 17.9556L75.0745 17.9576ZM41.392 37.0772C41.4228 37.3768 41.4506 37.6714 41.4884 37.965C41.4983 38.0389 41.5342 38.1138 41.573 38.1797C41.6346 38.2835 41.736 38.3185 41.8533 38.3045C41.9548 38.2925 42.0323 38.2346 42.0621 38.1417C42.0924 38.0546 42.106 37.9624 42.1019 37.8701C42.082 37.6055 42.0532 37.3419 42.0154 37.0812C41.995 36.9583 41.96 36.8383 41.911 36.7238C41.8672 36.6189 41.7857 36.544 41.6604 36.549C41.557 36.553 41.4775 36.6319 41.4427 36.7587C41.4307 36.8036 41.4188 36.8486 41.4109 36.8955C41.4019 36.9564 41.3979 37.0193 41.392 37.0772Z" fill="black"/>
</svg>
