<svg width="65" height="31" viewBox="0 0 65 31" fill="none" xmlns="http://www.w3.org/2000/svg">
<path d="M36.2986 21.2136C36.1678 21.1383 36.0359 21.0642 35.9061 20.9869C35.4364 20.6952 34.9348 20.4584 34.4111 20.2811C34.1749 20.2004 33.9431 20.1072 33.7167 20.0019C33.5292 19.9185 33.3303 19.867 33.1346 19.8062C32.3619 19.5713 31.549 19.494 30.7639 19.3137C30.7288 19.3054 30.6938 19.2962 30.6577 19.2951C30.6083 19.2931 30.5619 19.3199 30.5475 19.3693C30.5154 19.48 30.49 19.5925 30.4713 19.7062C30.4661 19.734 30.4939 19.7783 30.5186 19.7948C30.6145 19.8597 30.7175 19.9082 30.836 19.9288C31.2254 19.9988 31.6128 20.074 32.0002 20.1493C32.1682 20.1812 32.3351 20.2152 32.502 20.2523C32.5628 20.2657 32.6246 20.2822 32.6792 20.31C32.808 20.3759 32.944 20.411 33.0913 20.4223C33.1789 20.4295 33.2696 20.4532 33.3489 20.4903C33.7991 20.7066 34.2751 20.8612 34.7408 21.0405C34.849 21.0817 34.9531 21.1332 35.053 21.1909C35.5084 21.4526 35.9617 21.7184 36.4161 21.9842C36.5851 22.0821 36.753 22.1831 36.921 22.282C37.2764 22.4901 37.6597 22.6354 38.0584 22.7425C38.5334 22.8703 39.0063 23.0042 39.4823 23.132C39.7594 23.2062 40.0417 23.2608 40.3343 23.2618C40.764 23.2639 41.1792 23.336 41.5965 23.4081C41.9056 23.4617 42.2198 23.5008 42.532 23.5451L43.7611 23.7203C43.8683 23.7357 43.9754 23.7502 44.0826 23.7615C44.3196 23.7883 44.5545 23.7543 44.7883 23.6698C44.8921 23.6295 44.9999 23.6005 45.1098 23.5833C45.2922 23.5596 45.4271 23.4761 45.4962 23.2896C45.5229 23.2154 45.5714 23.1804 45.6425 23.1742C45.9536 23.1495 46.2637 23.1248 46.5646 23.202C46.6594 23.2268 46.7573 23.2433 46.8541 23.2618C47.0001 23.2936 47.1527 23.2705 47.2827 23.1969C47.597 23.0186 47.9215 22.997 48.2491 23.0331C48.8879 23.1052 49.5123 23.2288 50.1284 23.3885C50.6312 23.5183 51.1278 23.6729 51.6368 23.778C52.2343 23.9016 52.8185 24.0716 53.4089 24.221C53.9436 24.357 54.4876 24.4085 55.0491 24.3611C55.4417 24.3271 55.8342 24.3034 56.2268 24.2581C56.7749 24.1922 57.322 24.1777 57.8691 24.153C58.5728 24.1221 59.2754 24.0665 59.9771 23.9387C60.0306 23.9284 60.0883 23.9181 60.1399 23.9253C60.1677 23.9294 60.1914 23.9686 60.2089 23.9974C60.213 24.0067 60.1862 24.05 60.1677 24.0562C59.8545 24.1633 59.5701 24.3405 59.2857 24.5167C58.9447 24.7279 58.6026 24.9381 58.2626 25.1514C58.174 25.207 58.0834 25.2637 58.0051 25.3337C57.9393 25.3904 57.8839 25.458 57.8413 25.5336C57.7434 25.716 57.8505 25.888 58.0463 25.8685C58.1105 25.8603 58.173 25.8422 58.2317 25.8149C58.3008 25.784 58.3657 25.7417 58.4306 25.7016C58.8613 25.4357 59.294 25.173 59.7226 24.902C60.0595 24.6898 60.416 24.5517 60.792 24.4786C60.8642 24.4642 60.9363 24.4456 61.0094 24.4353C61.7502 24.3261 62.3818 23.9511 62.9485 23.4287C63.0768 23.3007 63.2305 23.2011 63.3997 23.1361C63.5105 23.1024 63.6079 23.0346 63.6779 22.9424C63.74 22.8561 63.8337 22.798 63.9386 22.7806C64.0602 22.76 64.158 22.8105 64.1931 22.928C64.2142 23.0014 64.2201 23.0784 64.2106 23.1542C64.201 23.23 64.1761 23.3031 64.1374 23.369C63.987 23.6306 63.851 23.9016 63.6656 24.1437C63.5182 24.3374 63.3853 24.5425 63.24 24.7382C62.9711 25.104 62.6425 25.4017 62.2798 25.6593C61.9351 25.9002 61.5735 26.1161 61.198 26.3053C60.962 26.4259 60.7271 26.5516 60.4933 26.6762C60.3662 26.7459 60.2508 26.8349 60.1512 26.94C60.0286 27.0638 59.9025 27.184 59.7731 27.3006C59.6476 27.4196 59.5048 27.5189 59.3496 27.5953C59.2734 27.6313 59.2033 27.6839 59.1333 27.7343C58.9612 27.857 58.7953 27.9899 58.6202 28.1063C58.3471 28.2876 58.0586 28.4257 57.7465 28.4978C57.6125 28.5287 57.4755 28.574 57.3488 28.6348C57.1931 28.7179 57.0182 28.7584 56.8419 28.7523C56.7407 28.7453 56.6392 28.7583 56.5431 28.7904C55.8929 29.0233 55.2274 29.1139 54.5608 29.1871C54.195 29.2283 53.8293 29.2406 53.4656 29.2726C53.1554 29.2994 52.8443 29.3323 52.5342 29.3663C52.1323 29.4106 51.7316 29.4591 51.3297 29.5065C51.2751 29.5126 51.2226 29.5168 51.1762 29.5621C51.0124 29.7187 50.8125 29.761 50.6096 29.7908C50.3114 29.8329 50.0098 29.846 49.7091 29.83C49.5449 29.817 49.3797 29.8277 49.2186 29.8619C49.1397 29.8843 49.057 29.8905 48.9756 29.8803C48.8942 29.87 48.8156 29.8434 48.7447 29.8022C48.6829 29.764 48.6283 29.7692 48.5654 29.7919C48.4954 29.8176 48.4243 29.8413 48.3532 29.8681C48.0874 29.966 47.8174 30.0278 47.5413 30.0484C47.3868 30.0608 47.2322 30.0865 47.0766 30.1071C46.8191 30.1401 46.5708 30.1257 46.3183 30.0803C45.5038 29.9341 44.6874 29.7988 43.8693 29.6744C42.9431 29.5353 42.0117 29.422 41.0875 29.2788C40.6179 29.2008 40.1515 29.1046 39.6894 28.9903C39.0712 28.844 38.4561 28.6812 37.8585 28.469C37.5056 28.3435 37.1549 28.212 36.8066 28.0743C36.6743 28.0207 36.5476 27.9541 36.4285 27.8755C36.1297 27.6818 35.8309 27.4871 35.5424 27.2779C35.3106 27.111 35.1251 26.8885 34.95 26.6597C34.8554 26.5388 34.7644 26.4151 34.677 26.2888C34.3452 25.8046 33.9104 25.4399 33.4251 25.1328C33.1233 24.9412 32.7936 24.8052 32.4669 24.664C32.2609 24.5765 32.0507 24.5023 31.8436 24.4209C31.7372 24.3715 31.6208 24.3475 31.5036 24.3508C31.4507 24.3518 31.3994 24.3691 31.3567 24.4005C31.3141 24.4319 31.2823 24.4757 31.2656 24.526C31.2469 24.5694 31.2424 24.6177 31.253 24.6639C31.2636 24.71 31.2885 24.7516 31.3243 24.7825C31.3965 24.8464 31.4789 24.9041 31.5675 24.9433C31.7869 25.0411 32.0105 25.1287 32.2351 25.2173C32.7863 25.4347 33.2974 25.718 33.7414 26.1137C33.828 26.191 33.9063 26.2785 33.9836 26.3651C34.0134 26.397 34.0351 26.4372 34.0588 26.4743C34.0062 26.5217 33.9557 26.497 33.9042 26.4815C33.6054 26.3857 33.286 26.3682 32.9759 26.3208C32.5401 26.2528 32.1043 26.1889 31.6674 26.1219C31.4293 26.0803 31.1957 26.0157 30.9699 25.9293C30.3909 25.7232 29.8098 25.5171 29.2328 25.3028C28.8908 25.1761 28.5528 25.037 28.2159 24.8948C27.7811 24.7114 27.3494 24.5208 26.9177 24.3313C26.721 24.2457 26.5262 24.1582 26.3325 24.0675C26.0183 23.9191 25.7061 23.7666 25.3919 23.6183C25.1106 23.4864 24.8252 23.3586 24.5429 23.2278C24.2678 23.1011 23.9927 22.9754 23.7207 22.8435C23.4714 22.724 23.2272 22.5962 22.9789 22.4746C22.5297 22.2583 22.0825 22.0368 21.6292 21.8297C21.3004 21.6704 20.9939 21.4688 20.7174 21.23C20.0496 20.6789 19.4061 20.099 18.7886 19.4919C18.6166 19.323 18.4301 19.1705 18.2508 19.0097C18.2395 18.9994 18.2343 18.9809 18.2261 18.9665L18.3013 18.9366C18.3096 18.9335 18.3199 18.9366 18.3281 18.9386C18.6372 18.9963 18.9442 19.0674 19.2348 19.1828C19.7066 19.3703 20.1662 19.5877 20.603 19.8463C21.0553 20.1142 21.5179 20.3636 22.0042 20.5645C22.5091 20.7716 23.0386 20.9045 23.5816 20.992C23.6631 21.0015 23.7456 20.9973 23.8258 20.9797C23.8815 20.9674 23.9334 20.9419 23.9773 20.9055C24.0957 20.8107 24.1112 20.6582 24.0143 20.5573C23.9783 20.5181 23.9335 20.4881 23.8835 20.4697C23.7908 20.4388 23.6939 20.4202 23.5971 20.3996C23.2014 20.3193 22.8068 20.2317 22.4328 20.0854C22.0567 19.9453 21.6917 19.7773 21.3407 19.5826C21.1089 19.4507 20.8812 19.3096 20.6453 19.1849C20.1816 18.9397 19.7118 18.7058 19.2069 18.5461C18.7702 18.405 18.3167 18.3219 17.8583 18.2988C17.6141 18.2875 17.3689 18.2803 17.1247 18.27C17.034 18.2669 16.9423 18.2659 16.8527 18.2545C16.7559 18.2422 16.659 18.2277 16.5869 18.1453C16.523 18.0732 16.4323 18.0536 16.3376 18.0886C16.2417 18.1237 16.1552 18.101 16.0707 18.0763C15.6169 17.9432 15.1705 17.786 14.7334 17.6054C14.3388 17.4406 13.9431 17.2788 13.5609 17.0872C13.4409 17.0291 13.3236 16.9655 13.2096 16.8966C12.952 16.7359 12.6996 16.569 12.4471 16.4041C12.1736 16.234 11.9264 16.0246 11.7136 15.7828C11.6157 15.6674 11.5333 15.5356 11.4457 15.4109C11.4199 15.3738 11.4034 15.3285 11.3766 15.2934C11.3396 15.244 11.2685 15.2038 11.2633 15.1502C11.2582 15.0709 11.2942 14.9833 11.32 14.9009C11.3437 14.8277 11.3777 14.7566 11.4076 14.6845C11.5065 14.4496 11.5765 14.2085 11.593 13.9571C11.6002 13.8613 11.6105 13.7655 11.6116 13.6707C11.6198 13.2493 11.6868 12.8331 11.7743 12.4148C11.8568 12.015 11.9742 11.6317 12.1442 11.2557C12.476 10.5211 12.9891 10.0296 13.7474 9.84932C14.1337 9.75659 14.5119 9.73598 14.8725 9.88641C14.9384 9.91423 15.0105 9.92453 15.0775 9.94926C15.3165 10.0389 15.5659 10.0543 15.8255 10.0234C16.2562 9.97192 16.6837 9.95853 17.1062 10.0162C17.5523 10.078 17.9974 10.1471 18.4219 10.2903C18.6001 10.349 18.7722 10.4242 18.9483 10.486C19.0315 10.519 19.1189 10.5398 19.208 10.5479C19.377 10.5551 19.4841 10.383 19.4068 10.2295C19.3218 10.0697 19.1832 9.94496 19.0153 9.87713C18.6954 9.73794 18.3608 9.63495 18.018 9.5701C17.8511 9.5361 17.6821 9.50829 17.5142 9.47738C16.9766 9.38331 16.428 9.36907 15.8863 9.43513C15.6534 9.46295 15.4309 9.45574 15.2197 9.36919C15.1867 9.35477 15.1476 9.35477 15.1166 9.34138C14.5984 9.12192 14.0585 9.17138 13.5083 9.31974C13.4455 9.33623 13.3837 9.35992 13.3198 9.37332C13.2971 9.37744 13.26 9.37022 13.2755 9.33004C13.3353 9.1755 13.3991 9.02198 13.5248 8.90659C13.6093 8.82726 13.6907 8.74174 13.7824 8.67374C13.9843 8.52435 14.178 8.36465 14.3553 8.18538C14.4217 8.1167 14.507 8.06936 14.6005 8.04938C14.8374 7.99683 15.0559 7.89277 15.2753 7.77119C15.4721 7.66095 15.6926 7.60016 15.9059 7.53422C15.9821 7.5095 16.0697 7.52289 16.149 7.53422C16.2737 7.55071 16.3983 7.57338 16.5199 7.60429C16.9619 7.71762 17.406 7.82786 17.8428 7.95459C18.1262 8.03701 18.4033 8.13695 18.6774 8.24307C19.4171 8.53053 20.1589 8.81283 20.9183 9.0498C21.182 9.13222 21.4509 9.20435 21.7168 9.28162C22.0856 9.39083 22.44 9.53713 22.7831 9.70919C23.2282 9.9338 23.6692 10.1636 24.0957 10.4242C24.5522 10.7024 24.9148 11.0795 25.2085 11.5328C25.362 11.7677 25.5114 12.0068 25.6721 12.2334C25.9874 12.6785 26.3655 13.0597 26.7622 13.4203C26.8539 13.5028 26.9641 13.5666 27.0702 13.6316C27.1475 13.679 27.2351 13.6954 27.3309 13.6769C27.4885 13.647 27.5905 13.4657 27.5143 13.3266C27.4663 13.2404 27.4006 13.1653 27.3216 13.1061C27.0774 12.9237 26.8673 12.7043 26.654 12.4879C26.3967 12.2233 26.1656 11.9345 25.9637 11.6256C25.9393 11.5874 25.918 11.5475 25.8998 11.506C25.8957 11.4988 25.9132 11.469 25.9204 11.469C25.9925 11.469 26.0646 11.469 26.1368 11.4751C26.6374 11.5256 27.1309 11.6317 27.608 11.7914C27.8533 11.8718 28.0964 11.9625 28.3189 12.0954C28.6249 12.2777 28.9371 12.4508 29.2359 12.6435C29.476 12.796 29.6985 12.9773 29.9345 13.135C30.326 13.3987 30.7072 13.6769 31.1224 13.9046C31.1451 13.917 31.1677 13.9345 31.1935 13.9406C31.4397 14.0045 31.6427 14.1539 31.8632 14.2683C32.0208 14.3507 32.1826 14.4249 32.3413 14.5063C32.6421 14.6619 32.9337 14.8298 33.2098 15.0286C33.658 15.3511 34.0866 15.6994 34.5131 16.0517C34.9046 16.3753 35.2941 16.7029 35.7011 17.0058C36.0514 17.2665 36.4182 17.5024 36.786 17.7373C37.569 18.235 38.3057 18.7923 38.9434 19.4796C39.3164 19.8814 39.7285 20.2368 40.1468 20.5851C40.324 20.7324 40.5167 20.8633 40.7073 20.9931C40.9443 21.1528 41.1813 21.3125 41.4275 21.4546C41.6974 21.6092 41.9736 21.7534 42.2559 21.8853C42.9822 22.2274 43.6571 22.6611 44.3649 23.0393C44.3958 23.0557 44.4267 23.0743 44.4556 23.0949C44.469 23.1052 44.4772 23.1227 44.4885 23.1361C44.4648 23.1505 44.4401 23.1753 44.4164 23.1753C44.2907 23.1763 44.1609 23.1835 44.0373 23.167C43.7158 23.1237 43.3974 23.0691 43.077 23.0186C42.9977 23.0063 42.9183 22.9857 42.8369 22.9816C42.3754 22.9537 41.9251 22.8693 41.4739 22.7868C41.1458 22.7233 40.8127 22.6888 40.4786 22.6838C40.2256 22.6823 39.9739 22.6483 39.7296 22.5828C39.1505 22.4283 38.5736 22.2676 37.9976 22.1037C37.7397 22.0304 37.4919 21.9252 37.2599 21.7905L36.2883 21.23C36.2925 21.2259 36.2956 21.2197 36.2986 21.2136Z" fill="black"/>
<path d="M4.3469 7.55801C4.48702 7.61983 4.67041 7.71256 4.86205 7.78262C5.15466 7.8908 5.45138 7.98868 5.75017 8.08141C6.04175 8.17208 6.34569 8.20917 6.65684 8.20504C6.80211 8.20504 6.94841 8.20195 7.09369 8.19268C7.537 8.16076 7.98259 8.18813 8.41866 8.27408C8.47223 8.28438 8.52684 8.2885 8.57835 8.30292C8.66078 8.32559 8.73805 8.30499 8.81635 8.26171C8.95854 8.18444 9.10278 8.11438 9.24599 8.0402C9.36245 7.97961 9.49008 7.9435 9.62102 7.93408C9.83944 7.91862 10.0589 7.89802 10.2773 7.89286C10.4968 7.88771 10.7111 7.86298 10.9295 7.79808C11.1696 7.72595 11.4168 7.68783 11.661 7.63941C11.8434 7.60232 12.0206 7.54668 12.1947 7.47147C12.5642 7.3158 12.9537 7.21246 13.3517 7.16444C13.6268 7.12735 13.8968 7.16444 14.1616 7.21595C14.28 7.23862 14.3089 7.33341 14.244 7.45292C14.1555 7.61568 14.0262 7.75271 13.869 7.85062C13.4908 8.08759 13.1817 8.40698 12.8984 8.75523C12.8296 8.83772 12.775 8.93102 12.7367 9.03135C12.6547 9.24054 12.5281 9.42935 12.3657 9.58462C12.2782 9.67529 12.1885 9.76492 12.104 9.85868C12.0358 9.93925 11.9516 10.0048 11.8568 10.0513C11.7187 10.1152 11.6404 10.2213 11.6023 10.381C11.5539 10.5768 11.4879 10.7726 11.4014 10.958C11.2262 11.333 11.1294 11.7256 11.0624 12.1264C11.0191 12.3829 10.9851 12.6405 10.9408 12.896C10.8477 13.4696 10.7056 14.0342 10.5164 14.5837C10.4751 14.7011 10.4164 14.8165 10.3515 14.9257C10.2227 15.1421 9.92084 15.1998 9.75805 15.0349C9.68438 14.956 9.62103 14.8681 9.5695 14.7732C9.52826 14.7012 9.49805 14.6234 9.47987 14.5424C9.40775 14.2261 9.25114 13.9644 9.06466 13.7182C8.89672 13.4946 8.75041 13.2546 8.58041 13.032C8.3826 12.7755 8.16932 12.5333 7.96532 12.283C7.76595 12.0397 7.56812 11.7952 7.37187 11.5494C7.26606 11.4208 7.20048 11.2638 7.18332 11.0981C7.17714 11.0363 7.14726 10.9951 7.0906 10.9755C6.63822 10.8121 6.1949 10.6247 5.76254 10.414C5.2546 10.177 4.75284 9.92668 4.2686 9.64438C3.9389 9.45274 3.63084 9.22298 3.31763 9.00456C2.98243 8.76851 2.66144 8.5129 2.35635 8.23905C1.92119 7.85014 1.53101 7.41365 1.19314 6.93777C1.0252 6.70286 0.863444 6.4628 0.71302 6.21553C0.32575 5.5698 0.0923673 4.84356 0.0309591 4.09311C-0.0254943 3.57947 -0.00465667 3.06027 0.0927775 2.5528C0.149444 2.27874 0.212293 2.00468 0.280293 1.73268C0.304716 1.65084 0.310004 1.56447 0.295747 1.48026C0.244753 1.20299 0.298347 0.91667 0.446171 0.676622C0.54405 0.507652 0.654293 0.344864 0.775868 0.193409C0.939687 -0.0105905 1.16635 -0.0538633 1.36829 0.0666822C1.43629 0.107894 1.50223 0.159409 1.55066 0.221228C1.69696 0.402561 1.8412 0.588015 1.97308 0.781712C2.1606 1.0568 2.15956 1.37208 1.95453 1.65747C1.86859 1.7866 1.80098 1.92703 1.75363 2.07474C1.72066 2.16541 1.70211 2.26123 1.67429 2.35499C1.62793 2.51674 1.60217 2.66614 1.70932 2.81141C1.75775 2.87632 1.75672 2.98759 1.76496 3.08032C1.77217 3.16377 1.7629 3.25135 1.76084 3.33789C1.74289 3.94772 1.87038 4.55305 2.13278 5.10383C2.25744 5.36759 2.39344 5.6262 2.53872 5.87862C2.79938 6.33195 3.14454 6.70802 3.55769 7.01092C3.80187 7.1902 4.05429 7.35608 4.3469 7.55801Z" fill="black"/>
</svg>
