<svg width="106" height="124" viewBox="0 0 106 124" fill="none" xmlns="http://www.w3.org/2000/svg">
<path d="M85.5397 92.08C84.787 92.2178 83.9806 92.129 83.2001 92.3477C82.0695 92.6662 80.9131 92.8549 79.7448 92.9668C79.6473 92.9758 79.5499 93.0037 79.4544 93.0286C79.353 93.0546 79.3152 93.1744 79.3828 93.2653C79.5031 93.4261 79.6205 93.5888 79.7538 93.7376C80.3523 94.4097 80.9589 95.0757 81.5584 95.7468C82.1803 96.4339 82.6982 97.2091 83.0956 98.0474C83.4735 98.8543 83.6744 99.6961 83.6505 100.591C83.6107 102.126 82.9843 103.344 81.7155 104.211C81.3436 104.463 80.9479 104.679 80.5651 104.915C80.0858 105.209 80.0819 105.221 80.404 105.714C80.5263 105.902 80.6546 106.089 80.7908 106.268C81.462 107.15 81.7772 108.17 81.9253 109.251C81.9909 109.732 81.9313 110.21 81.7801 110.661C81.5919 111.204 81.3765 111.738 81.1348 112.259C80.938 112.699 80.6227 113.057 80.2708 113.383C80.1788 113.467 80.0912 113.556 80.0083 113.65C79.9775 113.684 79.9685 113.738 79.9486 113.783C80.0093 113.805 80.0719 113.85 80.1306 113.846C80.8514 113.794 81.5723 113.739 82.2922 113.676C82.6154 113.648 82.9365 113.605 83.2567 113.558C83.5033 113.522 83.7509 113.483 83.9915 113.423C84.5622 113.282 84.9809 112.94 85.1708 112.376C85.3219 111.93 85.6262 111.54 85.6421 111.041C85.6451 110.93 85.7475 110.819 85.8131 110.712C86.7736 109.14 87.933 107.741 89.3887 106.602C90.2935 105.894 91.2023 105.19 92.1091 104.485C92.3259 104.316 92.5496 104.156 92.7564 103.975C93.3744 103.454 93.7858 102.728 93.9158 101.929C94.0163 101.338 93.8631 100.783 93.6981 100.232C93.4425 99.3796 92.9583 98.6496 92.4134 97.9586C91.6731 97.0092 90.7789 96.1916 89.7685 95.54C89.453 95.3381 89.143 95.1277 88.8388 94.909C88.3046 94.531 87.8945 94.0019 87.6606 93.3891C87.5966 93.2267 87.5497 93.0581 87.5204 92.8859C87.4408 92.3746 87.4498 92.3566 86.9835 92.2717C86.5191 92.1888 86.0468 92.1459 85.5397 92.08ZM21.0918 86.7626C21.8506 86.7706 22.601 86.6036 23.2853 86.2743C24.7504 85.5736 26.1388 84.7212 27.4277 83.731C28.5771 82.8562 29.4789 81.7588 30.169 80.4876C30.3002 80.246 30.4444 80.0083 30.5588 79.7597C31.0231 78.7421 31.7052 77.8864 32.4798 77.0945C33.5676 75.9851 34.7379 74.9706 35.95 74.0019C36.0464 73.9251 36.1488 73.8492 36.2303 73.7573C36.2731 73.7094 36.3149 73.6215 36.2214 73.5676C36.114 73.5047 36.0067 73.4398 35.8923 73.3928C35.3613 73.1751 34.8293 72.9604 34.2964 72.7497C32.8981 72.1978 31.6296 71.3596 30.5717 70.2883C30.4663 70.1814 30.3619 70.0706 30.2426 69.9847C30.1978 69.9517 30.0914 69.9587 30.0417 69.9907C29.9373 70.0566 29.8488 70.1494 29.7603 70.2373C28.0699 71.9209 26.5298 73.7253 25.439 75.8702C25.0075 76.718 24.4029 77.3871 23.6502 77.9543C22.6867 78.6812 21.8753 79.566 21.1525 80.5326C20.1114 81.9246 19.3488 83.4723 18.6399 85.0501C18.5782 85.1869 18.5305 85.3317 18.4957 85.4765C18.3763 85.9648 18.5643 86.3293 19.0475 86.4661C19.7129 86.6551 20.4004 86.7548 21.0918 86.7626ZM36.2731 17.7066C36.3716 17.7076 36.4769 17.7325 36.5674 17.7066C37.9346 17.3141 39.2919 16.8897 40.5417 16.1957C42.1088 15.326 43.4431 14.1637 44.6154 12.8126C44.9923 12.3792 45.3373 11.9179 45.7013 11.4725C46.3197 10.7186 46.9322 9.9597 47.5636 9.21776C48.1324 8.54872 48.7966 7.97653 49.4837 7.43431C49.9394 7.08293 50.4434 6.79974 50.9801 6.59353C51.5631 6.37053 52.1079 6.05753 52.5949 5.66585C52.922 5.39823 53.2949 5.18655 53.6379 4.93691C53.8614 4.77783 54.0728 4.60226 54.2703 4.41166C54.5169 4.16801 54.5566 3.88438 54.3826 3.58881C54.2832 3.41905 54.148 3.26427 54.0038 3.12847C53.4729 2.6244 52.7915 2.30997 52.0649 2.23375C51.0218 2.11392 49.9759 2.1449 48.9298 2.27471C48.5222 2.32564 48.2318 2.51635 48.02 2.84987C47.6968 3.35515 47.3657 3.85643 47.0615 4.37369C46.5902 5.17654 46.0522 5.92845 45.389 6.57952C44.9446 7.01489 44.4663 7.41836 43.9871 7.81779C43.5277 8.20224 43.0355 8.54872 42.5801 8.93716C41.6405 9.726 40.8285 10.6564 40.1729 11.6952C39.5375 12.7138 38.9021 13.7323 38.2856 14.7628C37.694 15.7514 37.0746 16.718 36.3089 17.5828C36.2821 17.6127 36.292 17.6737 36.285 17.7206L36.2731 17.7066ZM54.8092 117.189C53.8298 117.159 52.8941 117.54 52.1504 118.371C51.8034 118.76 51.4236 119.126 51.2018 119.613C51.1829 119.655 51.1641 119.741 51.178 119.75C51.2327 119.782 51.3062 119.816 51.3629 119.805C51.7318 119.73 52.0768 119.604 52.3741 119.357C52.6804 119.103 53.0115 118.879 53.3138 118.621C54.0436 117.999 54.9027 117.718 55.8354 117.621C56.0581 117.598 56.2808 117.582 56.5025 117.56C56.5194 117.558 56.5483 117.531 56.5463 117.525C56.5264 117.482 56.5095 117.414 56.4777 117.405C55.9344 117.255 55.3727 117.182 54.8092 117.189Z" fill="black"/>
<path d="M59.1888 123.9C60.3134 123.9 61.437 123.901 62.5606 123.899C63.4366 123.897 64.3046 123.816 65.1527 123.584C65.3924 123.518 65.624 123.422 65.8547 123.329C66.2087 123.185 66.4702 122.945 66.7178 122.642C68.0313 121.031 69.3896 119.46 71.0054 118.136C71.9007 117.412 72.8621 116.776 73.8769 116.234C74.5352 115.877 75.2093 115.545 75.8536 115.165C76.5844 114.734 77.2924 114.262 78.0063 113.803C78.1932 113.682 78.3454 113.506 78.592 113.492C78.6576 113.488 78.7302 113.433 78.7829 113.384C79.2363 112.954 79.6877 112.521 80.1391 112.088C81.3055 110.346 81.4805 108.947 80.4951 107.089C80.3669 106.848 80.1918 106.63 80.0307 106.407C79.5558 105.732 79.1636 105.002 78.8624 104.233C78.7879 104.049 78.6735 103.881 78.5751 103.707C78.061 102.791 77.542 101.877 77.0339 100.956C76.9012 100.715 76.786 100.464 76.6889 100.206C75.622 97.4004 76.1012 94.8481 77.9516 92.5254C78.1226 92.3107 78.3235 92.117 78.4737 91.8883C78.7103 91.5278 79.0483 91.344 79.4461 91.2402C80.0754 91.0803 80.7195 90.9859 81.3681 90.9586C81.6426 90.9446 81.918 90.9426 82.1924 90.9426C83.5656 90.9376 84.9387 90.9406 86.3119 90.9277C86.6847 90.9237 87.0576 90.8768 87.4295 90.8458C88.0758 90.7909 88.7231 90.736 89.3684 90.6761C89.617 90.6531 89.8864 90.67 90.1062 90.5762C90.4671 90.4204 90.676 90.5992 90.8838 90.8248C91.0359 90.9906 91.1602 91.1813 91.3113 91.3471C91.8581 91.9361 92.5185 92.4073 93.2522 92.7321C94.2793 93.1974 95.3383 93.5739 96.4619 93.7087C97.2474 93.8026 98.0081 93.6837 98.6862 93.2473C99.0084 93.0396 99.3364 92.8829 99.7262 92.8689C99.8237 92.8659 99.9221 92.8349 100.019 92.812C100.385 92.7221 100.648 92.5164 100.747 92.1359C100.773 92.0391 100.796 91.9402 100.833 91.8483C100.903 91.6686 101.036 91.5568 101.231 91.5588C101.554 91.5628 101.877 91.5798 102.2 91.5997C102.423 91.6137 102.647 91.6646 102.868 91.6576C103.288 91.6466 103.492 91.359 103.395 90.9456C103.372 90.8488 103.324 90.7579 103.3 90.6611C103.252 90.4713 103.297 90.3904 103.49 90.3205C103.654 90.2596 103.825 90.2187 103.985 90.1508C104.213 90.0539 104.249 89.7613 104.059 89.5926C103.966 89.5107 103.86 89.4438 103.759 89.3689C103.057 88.8467 102.348 88.3344 101.657 87.7991C101.222 87.4626 100.799 87.1111 100.303 86.8635C100.19 86.8065 100.183 86.7157 100.286 86.6398C100.976 86.1385 101.588 85.5484 102.192 84.9482C102.69 84.4539 103.118 83.8935 103.464 83.2826C104.406 81.6524 105.021 79.8533 105.277 77.9862C105.516 76.2208 105.409 74.4863 104.883 72.7827C104.395 71.204 103.911 69.6232 103.405 68.0505C102.964 66.6834 102.295 65.4252 101.539 64.209C101.167 63.6149 100.82 63.0059 100.498 62.3836C99.0461 59.5616 97.2623 56.9693 95.1971 54.5698C91.8055 50.6274 87.8352 47.3711 83.4532 44.606C78.3543 41.3886 72.8975 38.9481 67.1862 37.0618C63.5615 35.8631 59.8648 34.8962 56.1183 34.167C55.3358 34.0152 54.5503 33.8724 53.7668 33.7226C53.6196 33.6953 53.4734 33.663 53.3283 33.6258C52.5796 33.438 51.8308 33.2553 51.0821 33.0705C50.0341 32.8119 49.0846 32.2957 48.1579 31.7475C47.1257 31.1374 46.0936 30.5292 45.0039 30.0219C43.5999 29.3689 42.1412 29.0064 40.5841 29.0633C39.8861 29.0882 39.1861 29.0573 38.4871 29.0713C37.969 29.0823 37.5136 28.9595 37.0891 28.6429C36.3652 28.1057 35.5728 27.6773 34.7694 27.2709C34.1654 26.9697 33.5942 26.6063 33.065 26.1864C32.8045 25.9777 32.7081 25.743 32.7598 25.4045C32.9358 24.2342 32.8871 23.0539 32.8722 21.8756C32.8632 21.1836 32.6375 20.5465 32.2637 19.9663C32.0747 19.6718 31.8659 19.3892 31.671 19.0976C31.5388 18.8989 31.5468 18.808 31.7377 18.6542C31.9326 18.4985 32.1334 18.3467 32.3481 18.2229C32.9358 17.8853 33.5542 17.6227 34.2224 17.4879C34.4184 17.4505 34.6123 17.4025 34.8032 17.3441C35.4823 17.1264 36.0917 16.7979 36.5143 16.1977C36.8743 15.6865 37.2372 15.1762 37.5694 14.646C38.1669 13.6913 38.7546 12.7297 39.3233 11.7571C40.3772 9.95519 41.8053 8.40252 43.5104 7.20465C44.7993 6.28909 45.8753 5.10387 46.6644 3.73062C47.0661 3.03861 47.4678 2.34361 48.0018 1.73848C48.0647 1.66127 48.1022 1.56634 48.1091 1.46683C48.132 1.03945 47.784 0.492215 47.3783 0.341431C46.91 0.16768 46.4337 0.0189096 45.9236 0.0209068C45.5497 0.0229039 45.1739 0.0259225 44.801 0.00694972C43.7242 -0.0479716 42.7199 0.226595 41.7653 0.689931C40.8207 1.14927 39.905 1.66153 39.1115 2.36752C38.7565 2.68307 38.3767 2.97068 38.0158 3.27924C37.2897 3.89432 36.6446 4.59964 36.0958 5.37822C35.5052 6.21802 34.9324 7.07278 34.298 7.87763C33.4079 8.99289 32.497 10.0912 31.5656 11.1719C30.6628 12.2344 29.5282 13.0103 28.342 13.7163C28.1694 13.8171 27.9864 13.8987 27.7962 13.9599C27.3816 14.0997 26.9689 14.1227 26.5632 13.904C26.2112 13.7153 25.8463 13.5495 25.4943 13.3638C24.4781 12.8266 23.4609 12.2933 22.394 11.863C21.4335 11.4745 20.4432 11.2438 19.4011 11.3147C19.2044 11.3264 19.0105 11.3667 18.8254 11.4345C17.4543 11.9628 16.0642 12.0617 14.6473 11.6502C13.8329 11.4146 13.0226 11.164 12.2072 10.9313C11.8711 10.8354 11.5241 10.7815 11.189 10.6836C10.5755 10.5049 9.95411 10.5089 9.33266 10.5858C7.64729 10.7965 5.97979 11.102 4.35408 11.6053C2.89144 12.0577 1.72409 12.9065 0.902786 14.2156C0.863014 14.2785 0.826236 14.3444 0.782486 14.4063C0.458338 14.8646 0.591617 15.312 0.833237 15.7434C0.867044 15.8033 1.02709 15.8502 1.09172 15.8213C1.36265 15.6973 1.62569 15.5566 1.87926 15.3999C2.24119 15.1762 2.58619 14.9286 2.94713 14.7049C3.33392 14.4662 3.76442 14.3334 4.20689 14.2455C4.50917 14.1856 4.80751 14.2156 5.08293 14.3574C5.16577 14.4098 5.23308 14.4836 5.27782 14.571C5.3504 14.6999 5.25892 14.9066 5.1227 14.9365C5.02773 14.9635 4.92869 14.973 4.83037 14.9645C4.28051 14.8747 3.79129 15.0533 3.32893 15.315C2.98192 15.5107 2.65181 15.7384 2.32368 15.965C1.84641 16.2946 1.36422 16.6041 0.755692 16.6071C0.578703 16.6071 0.481247 16.726 0.42656 16.8708C0.160082 17.5778 -0.0258902 18.3017 0.00294503 19.0686C0.0118939 19.3033 0.0954387 19.494 0.206802 19.6967C1.08578 21.2884 2.38134 22.4957 3.75847 23.6291C4.14426 23.9457 4.57182 24.2113 4.95464 24.5318C5.39412 24.9003 5.80382 25.3027 6.2274 25.6912C6.24232 26.0956 6.58933 26.2523 6.83095 26.478C7.08549 26.7157 7.35695 26.9444 7.64928 27.1321C8.26377 27.5265 8.78976 28.0268 9.33763 28.5011C9.82087 28.9195 10.151 29.4498 10.3896 30.0369C10.6342 30.6391 10.8609 31.2502 11.0956 31.8573C12.069 34.3697 13.5287 36.5636 15.387 38.5008C16.1016 39.2367 16.796 39.9923 17.4692 40.7665C18.4008 41.853 19.1705 43.0562 19.8297 44.3274C20.2234 45.0853 20.5277 45.8702 20.655 46.73C20.7236 47.2003 20.7663 47.6587 20.7644 48.133C20.7574 49.2614 20.8697 50.3828 20.991 51.5042C21.1561 53.037 21.5548 54.5048 22.1047 55.9358C22.6592 57.3607 23.3359 58.7346 24.1272 60.0419C25.1271 61.7219 26.2766 63.3075 27.5615 64.7791C27.9582 65.2305 28.3281 65.7048 28.7259 66.1552C29.1395 66.6245 29.5681 67.0798 29.9976 67.5342C30.1338 67.679 30.276 67.8368 30.448 67.9276C30.9452 68.1923 31.3061 68.6047 31.6889 69.0001C32.6057 69.9457 33.6617 70.6877 34.8887 71.177C35.6076 71.4635 36.3195 71.7661 37.0304 72.0717C37.2353 72.1605 37.4371 72.2674 37.6171 72.3972C37.8875 72.5929 38.0645 72.8536 38.1242 73.1991C38.1739 73.4937 38.2703 73.7792 38.3499 74.0668C38.5448 74.7658 38.8053 75.4539 38.9226 76.1658C39.0688 77.0506 39.1383 77.9452 39.0727 78.8569C38.9544 80.5245 38.5179 82.1103 38.0267 83.691C37.7523 84.5747 37.4629 85.4575 37.3118 86.3742C37.2302 86.8685 37.1467 87.3628 37.091 87.8601C37.0185 88.5181 37.1239 89.1662 37.3158 89.7903C37.5952 90.699 37.9064 91.5977 38.2236 92.4944C38.4493 93.1315 38.7307 93.7486 38.9484 94.3877C39.4913 95.9824 40.261 97.4753 40.947 99.0041C41.3179 99.8289 41.8151 100.585 42.354 101.309C42.531 101.546 42.7477 101.761 42.9744 101.954C43.6894 102.566 44.6847 102.512 45.3479 102.082C45.7903 101.795 46.1549 101.402 46.4089 100.939C46.8046 100.24 47.0479 99.4644 47.1227 98.6636C47.2699 97.0799 47.08 95.562 46.2995 94.149C46.1175 93.8215 45.9554 93.481 45.7814 93.1485C45.5365 92.6831 45.2903 92.2184 45.0426 91.7545C44.5803 90.8897 44.287 89.9561 43.9539 89.0384C43.7093 88.3624 43.758 87.7123 44.1139 87.0832C44.3118 86.7347 44.4878 86.3742 44.6708 86.0177C45.5542 84.2991 46.1349 82.44 46.3869 80.5226C46.554 79.2306 46.6932 77.9352 46.8046 76.6372C46.8831 75.7654 47.1258 74.9795 47.6886 74.2895C48.4403 73.3678 48.9603 72.3123 49.3331 71.187C49.3988 70.9862 49.4923 70.8954 49.6792 70.8624C50.1207 70.7845 50.5601 70.6777 51.0046 70.6337C51.798 70.5548 52.5955 70.4989 53.393 70.459C54.5146 70.4031 55.6361 70.3691 56.7577 70.3272C56.883 70.3222 57.0083 70.3212 57.1326 70.3272C57.8455 70.3621 57.9191 70.424 58.0921 71.112C58.111 71.1849 58.1428 71.2549 58.1547 71.3288C58.4033 72.8915 59.154 74.2047 60.1811 75.37C61.0919 76.4015 62.0256 77.414 62.9493 78.4346C63.5423 79.0795 64.0786 79.7747 64.5522 80.5126C64.8316 80.9559 65.105 81.4113 65.3198 81.8886C65.8116 82.9633 66.0043 84.1518 65.8776 85.3277C65.7454 86.6049 65.4133 87.8371 65.1687 89.0903C64.9967 89.975 64.8068 90.8547 64.7312 91.7575C64.6615 92.6077 64.7684 93.4634 65.0454 94.2699C65.2532 94.89 65.5207 95.4851 65.8736 96.0343C66.6999 97.3185 67.5401 98.5937 68.3733 99.8739C68.6597 100.314 68.951 100.753 69.2255 101.201C69.8589 102.238 70.2516 103.37 70.4953 104.557C70.535 104.75 70.5956 104.935 70.4992 105.141C70.4385 105.269 70.4426 105.434 70.4406 105.583C70.4217 107.14 69.9175 108.532 68.9938 109.771C68.6508 110.231 68.2679 110.663 67.8821 111.089C67.4259 111.594 66.838 111.96 66.1849 112.146C65.6579 112.299 65.1329 112.468 64.5969 112.581C63.5161 112.808 62.5953 113.331 61.771 114.05C61.0352 114.691 60.3094 115.344 59.683 116.097C59.2594 116.606 58.7732 117.025 58.1438 117.257C58.1001 117.273 58.0642 117.311 58.0245 117.339C58.0652 117.354 58.106 117.379 58.1478 117.384C58.2969 117.401 58.4491 117.397 58.5943 117.428C58.7136 117.453 58.8319 117.504 58.9373 117.563C59.0566 117.631 59.1173 117.764 59.0616 117.884C59.0138 117.985 58.9025 118.12 58.813 118.124C58.5397 118.133 58.2662 118.118 57.9956 118.079C57.1758 117.981 56.3456 118.018 55.5377 118.189C54.9953 118.292 54.4859 118.525 54.0532 118.87C53.6869 119.172 53.3108 119.463 52.9256 119.74C52.7038 119.897 52.4622 120.053 52.2057 120.125C51.449 120.339 50.7769 120.71 50.1345 121.149C50.052 121.206 49.9755 121.28 49.884 121.312C49.4754 121.457 49.4117 121.808 49.4087 122.161C49.4047 122.569 49.6314 122.875 49.9805 123.07C50.1296 123.154 50.3056 123.195 50.4746 123.238C50.5939 123.269 50.7212 123.279 50.8455 123.283C51.2432 123.294 51.6598 123.372 52.0347 123.281C52.3986 123.193 52.5487 122.76 52.8192 122.504C53.2 122.143 53.5669 121.765 53.9716 121.434C54.5404 120.969 55.1807 120.638 55.9255 120.55C56.3083 120.505 56.6324 120.33 56.9357 120.096C57.2936 119.823 57.6566 119.557 58.0314 119.308C58.7182 118.841 59.5206 118.575 60.3492 118.54C60.7419 118.524 61.1417 118.604 61.5324 118.673C61.6686 118.697 61.8009 118.802 61.9103 118.898C61.9575 118.939 61.9903 118.995 62.0037 119.057C62.0172 119.119 62.0105 119.183 61.9848 119.241C61.9558 119.311 61.9047 119.369 61.8395 119.407C61.7743 119.444 61.6986 119.46 61.6239 119.45C61.5514 119.437 61.4807 119.409 61.4101 119.386C60.4367 119.058 59.5329 119.291 58.6758 119.764C58.2839 119.985 57.9113 120.238 57.5621 120.522C57.0829 120.906 56.5778 121.201 55.9583 121.272C55.4472 121.331 55.0018 121.559 54.5991 121.862C54.2809 122.103 53.9696 122.359 53.6892 122.641C53.5053 122.826 53.2378 122.959 53.2 123.264C53.4774 123.418 53.74 123.624 54.0373 123.713C54.3664 123.811 54.7332 123.864 55.0723 123.83C56.1492 123.722 57.2181 123.867 58.29 123.858C58.5902 123.857 58.8895 123.858 59.1888 123.858V123.9ZM17.5557 20.0372C16.6181 20.0003 15.7828 19.55 15.1693 18.7221C14.7089 18.101 14.3301 17.421 13.7763 16.8688C13.7368 16.8274 13.7082 16.7767 13.693 16.7215C13.6778 16.6662 13.6766 16.608 13.6894 16.5521C13.7022 16.4962 13.7287 16.4445 13.7664 16.4014C13.8042 16.3584 13.852 16.3254 13.9055 16.3056C14.3639 16.1438 14.7238 15.8382 15.1077 15.5616C15.2687 15.4448 15.4407 15.339 15.6207 15.2561C16.0811 15.0424 16.5514 14.9515 17.0704 15.0504C17.7197 15.1732 18.3014 15.4338 18.8622 15.7684C19.3246 16.045 19.6766 16.4234 19.9281 16.8977C20.1966 17.404 20.3955 17.9472 20.7952 18.3796C20.9344 18.5294 20.8697 18.795 20.7037 18.9128C20.6241 18.9698 20.5346 19.0377 20.4422 19.0506C20.0325 19.1086 19.7144 19.3542 19.3654 19.544C18.8344 19.8316 18.2746 20.0372 17.5557 20.0372ZM42.1472 5.13461C42.3242 5.14759 42.4067 5.13357 42.4704 5.16253C42.5584 5.2005 42.6361 5.25907 42.697 5.3333C42.7617 5.41818 42.7 5.58992 42.5847 5.65383C42.4326 5.73771 42.2764 5.8206 42.1124 5.87452C40.2898 6.47067 38.7675 7.5172 37.4848 8.93916C36.4617 10.0745 35.5688 11.3128 34.664 12.541C33.9232 13.5486 33.1854 14.5591 32.4128 15.5407C31.492 16.709 30.3068 17.5189 28.8979 17.9892C28.7093 18.0472 28.5134 18.0781 28.3162 18.081C28.1849 18.084 28.0925 17.9752 28.0666 17.8414C28.0418 17.7126 28.0637 17.5757 28.182 17.5098C28.3321 17.4259 28.5001 17.371 28.6632 17.3121C29.9369 16.8548 31.0168 16.1188 31.8709 15.0594C32.1215 14.7478 32.371 14.4352 32.6087 14.1137C33.5593 12.8245 34.4929 11.5244 35.4544 10.2453C36.2668 9.16482 37.1458 8.14029 38.1749 7.25456C39.1334 6.43074 40.2172 5.82159 41.3806 5.35226C41.655 5.23942 41.9523 5.18854 42.1472 5.13461Z" fill="black"/>
</svg>
